<svg width="40" height="40" viewBox="2 0 35 40" fill="none" xmlns="http://www.w3.org/2000/svg">
    <g filter="url(#filter0_d_194_6)">
        <path d="M20 31C28.2843 31 35 24.2843 35 16C35 7.71573 28.2843 1 20 1C11.7157 1 5 7.71573 5 16C5 24.2843 11.7157 31 20 31Z" stroke="black" stroke-width="2" />
        <path d="M20 31C28.2843 31 35 24.2843 35 16C35 7.71573 28.2843 1 20 1C11.7157 1 5 7.71573 5 16C5 24.2843 11.7157 31 20 31Z" stroke="black" stroke-width="2" />
        <path d="M20 8.5H20.015" stroke="black" stroke-width="2" stroke-linecap="round" />
        <path d="M17 14.5H20V22M17 22H23" stroke="black" stroke-width="2" stroke-linecap="round" stroke-linejoin="round" />
    </g>
    <defs>
        <filter id="filter0_d_194_6" x="0" y="0" width="40" height="40" filterUnits="userSpaceOnUse" color-interpolation-filters="sRGB">
            <feFlood flood-opacity="0" result="BackgroundImageFix" />
            <feColorMatrix in="SourceAlpha" type="matrix" values="0 0 0 0 0 0 0 0 0 0 0 0 0 0 0 0 0 0 127 0" result="hardAlpha" />
            <feOffset dy="4" />
            <feGaussianBlur stdDeviation="2" />
            <feComposite in2="hardAlpha" operator="out" />
            <feColorMatrix type="matrix" values="0 0 0 0 0 0 0 0 0 0 0 0 0 0 0 0 0 0 0.25 0" />
            <feBlend mode="normal" in2="BackgroundImageFix" result="effect1_dropShadow_194_6" />
            <feBlend mode="normal" in="SourceGraphic" in2="effect1_dropShadow_194_6" result="shape" />
        </filter>
    </defs>
</svg>
    