<svg width="50" height="50" viewBox="0 0 50 50" fill="none" xmlns="http://www.w3.org/2000/svg">
    <path d="M34.0947 13.3652C30.1572 13.3652 28.4932 15.2441 25.751 15.2441C22.9395 15.2441 20.7949 13.3789 17.3828 13.3789C14.043 13.3789 10.4815 15.418 8.21974 18.8916C5.04396 23.79 5.58302 33.0156 10.7266 40.875C12.5664 43.6885 15.0235 46.8438 18.2461 46.8779H18.3047C21.1055 46.8779 21.9375 45.0439 25.792 45.0225H25.8506C29.6475 45.0225 30.4092 46.8672 33.1983 46.8672H33.2569C36.4795 46.833 39.0684 43.3369 40.9082 40.5342C42.2324 38.5186 42.7246 37.5068 43.7403 35.2266C36.2998 32.4023 35.1045 21.8545 42.4629 17.8105C40.2168 14.998 37.0606 13.3691 34.085 13.3691L34.0947 13.3652Z" fill="black" />
    <path d="M33.2276 3.125C30.8838 3.28418 28.1494 4.77637 26.5479 6.72461C25.0948 8.49023 23.8994 11.1094 24.3682 13.6494H24.5557C27.0518 13.6494 29.6065 12.1465 31.0987 10.2207C32.5362 8.3877 33.626 5.79004 33.2276 3.125V3.125Z" fill="black" />
</svg>
    