<svg width="29" height="29" viewBox="0 0 29 29" fill="none" xmlns="http://www.w3.org/2000/svg">
    <path d="M11.2778 0H1.61111C1.18382 0 0.774025 0.169742 0.471883 0.471883C0.169742 0.774025 0 1.18382 0 1.61111V11.2778C0 11.7051 0.169742 12.1149 0.471883 12.417C0.774025 12.7191 1.18382 12.8889 1.61111 12.8889H11.2778C11.7051 12.8889 12.1149 12.7191 12.417 12.417C12.7191 12.1149 12.8889 11.7051 12.8889 11.2778V1.61111C12.8889 1.18382 12.7191 0.774025 12.417 0.471883C12.1149 0.169742 11.7051 0 11.2778 0ZM9.66667 9.66667H3.22222V3.22222H9.66667V9.66667ZM27.3889 0H17.7222C17.2949 0 16.8851 0.169742 16.583 0.471883C16.2809 0.774025 16.1111 1.18382 16.1111 1.61111V11.2778C16.1111 11.7051 16.2809 12.1149 16.583 12.417C16.8851 12.7191 17.2949 12.8889 17.7222 12.8889H27.3889C27.8162 12.8889 28.226 12.7191 28.5281 12.417C28.8303 12.1149 29 11.7051 29 11.2778V1.61111C29 1.18382 28.8303 0.774025 28.5281 0.471883C28.226 0.169742 27.8162 0 27.3889 0ZM25.7778 9.66667H19.3333V3.22222H25.7778V9.66667ZM11.2778 16.1111H1.61111C1.18382 16.1111 0.774025 16.2809 0.471883 16.583C0.169742 16.8851 0 17.2949 0 17.7222V27.3889C0 27.8162 0.169742 28.226 0.471883 28.5281C0.774025 28.8303 1.18382 29 1.61111 29H11.2778C11.7051 29 12.1149 28.8303 12.417 28.5281C12.7191 28.226 12.8889 27.8162 12.8889 27.3889V17.7222C12.8889 17.2949 12.7191 16.8851 12.417 16.583C12.1149 16.2809 11.7051 16.1111 11.2778 16.1111ZM9.66667 25.7778H3.22222V19.3333H9.66667V25.7778ZM22.5556 16.1111C19.0014 16.1111 16.1111 19.0014 16.1111 22.5556C16.1111 26.1097 19.0014 29 22.5556 29C26.1097 29 29 26.1097 29 22.5556C29 19.0014 26.1097 16.1111 22.5556 16.1111ZM22.5556 25.7778C20.7785 25.7778 19.3333 24.3326 19.3333 22.5556C19.3333 20.7785 20.7785 19.3333 22.5556 19.3333C24.3326 19.3333 25.7778 20.7785 25.7778 22.5556C25.7778 24.3326 24.3326 25.7778 22.5556 25.7778Z" fill="black" />
</svg>
    