<svg width="29" height="29" viewBox="0 0 29 29" fill="none" xmlns="http://www.w3.org/2000/svg">
    <path d="M9.66667 10.1667H10.1667V9.66667V3.22222V2.72222H9.66667H3.22222H2.72222V3.22222V9.66667V10.1667H3.22222H9.66667ZM25.7778 10.1667H26.2778V9.66667V3.22222V2.72222H25.7778H19.3333H18.8333V3.22222V9.66667V10.1667H19.3333H25.7778ZM9.66667 26.2778H10.1667V25.7778V19.3333V18.8333H9.66667H3.22222H2.72222V19.3333V25.7778V26.2778H3.22222H9.66667ZM1.61111 0.5H11.2778C11.5725 0.5 11.8551 0.617063 12.0635 0.825437C12.2718 1.03381 12.3889 1.31643 12.3889 1.61111V11.2778C12.3889 11.5725 12.2718 11.8551 12.0634 12.0634C11.8551 12.2718 11.5725 12.3889 11.2778 12.3889H1.61111C1.31643 12.3889 1.03381 12.2718 0.825437 12.0635C0.617063 11.8551 0.5 11.5725 0.5 11.2778V1.61111C0.5 1.31643 0.617063 1.03381 0.825437 0.825437C1.03381 0.617063 1.31643 0.5 1.61111 0.5ZM17.7222 0.5H27.3889C27.6836 0.5 27.9662 0.617064 28.1746 0.825436C28.3829 1.03381 28.5 1.31643 28.5 1.61111V11.2778C28.5 11.5725 28.3829 11.8551 28.1746 12.0635C27.9662 12.2718 27.6836 12.3889 27.3889 12.3889H17.7222C17.4275 12.3889 17.1449 12.2718 16.9365 12.0635C16.7282 11.8551 16.6111 11.5725 16.6111 11.2778V1.61111C16.6111 1.31643 16.7282 1.03381 16.9365 0.825436C17.1449 0.617063 17.4275 0.5 17.7222 0.5ZM1.61111 16.6111H11.2778C11.5725 16.6111 11.8551 16.7282 12.0635 16.9365C12.2718 17.1449 12.3889 17.4275 12.3889 17.7222V27.3889C12.3889 27.6836 12.2718 27.9662 12.0635 28.1746C11.8551 28.3829 11.5725 28.5 11.2778 28.5H1.61111C1.31643 28.5 1.03381 28.3829 0.825436 28.1746C0.617064 27.9662 0.5 27.6836 0.5 27.3889V17.7222C0.5 17.4275 0.617063 17.1449 0.825436 16.9365C1.03381 16.7282 1.31643 16.6111 1.61111 16.6111ZM16.6111 22.5556C16.6111 19.2776 19.2776 16.6111 22.5556 16.6111C25.8335 16.6111 28.5 19.2776 28.5 22.5556C28.5 25.8335 25.8335 28.5 22.5556 28.5C19.2776 28.5 16.6111 25.8335 16.6111 22.5556ZM18.8333 22.5556C18.8333 24.6088 20.5024 26.2778 22.5556 26.2778C24.6088 26.2778 26.2778 24.6088 26.2778 22.5556C26.2778 20.5024 24.6088 18.8333 22.5556 18.8333C20.5024 18.8333 18.8333 20.5024 18.8333 22.5556Z" fill="#D9D9D9" stroke="black" />
</svg>
    