<svg width="54" height="54" viewBox="0 0 54 54" fill="none" xmlns="http://www.w3.org/2000/svg">
    <g filter="url(#filter0_d_0_68)">
        <path d="M47 39.0491V23.5894C47.0001 22.5138 46.7779 21.4495 46.347 20.4617C45.9161 19.4739 45.2856 18.5834 44.494 17.8448L29.748 4.07994C29.0053 3.38642 28.022 3 27 3C25.978 3 24.9947 3.38642 24.252 4.07994L9.506 17.8448C8.71445 18.5834 8.0839 19.4739 7.653 20.4617C7.22209 21.4495 6.99988 22.5138 7 23.5894V39.0491C7 40.097 7.42143 41.1019 8.17157 41.8428C8.92172 42.5837 9.93913 43 11 43H43C44.0609 43 45.0783 42.5837 45.8284 41.8428C46.5786 41.1019 47 40.097 47 39.0491Z" fill="#D9D9D9" />
        <path d="M47 39.0491V23.5894C47.0001 22.5138 46.7779 21.4495 46.347 20.4617C45.9161 19.4739 45.2856 18.5834 44.494 17.8448L29.748 4.07994C29.0053 3.38642 28.022 3 27 3C25.978 3 24.9947 3.38642 24.252 4.07994L9.506 17.8448C8.71445 18.5834 8.0839 19.4739 7.653 20.4617C7.22209 21.4495 6.99988 22.5138 7 23.5894V39.0491C7 40.097 7.42143 41.1019 8.17157 41.8428C8.92172 42.5837 9.93913 43 11 43H43C44.0609 43 45.0783 42.5837 45.8284 41.8428C46.5786 41.1019 47 40.097 47 39.0491Z" stroke="black" stroke-width="4.16667" stroke-linecap="round" stroke-linejoin="round" />
    </g>
    <defs>
        <filter id="filter0_d_0_68" x="0.916687" y="0.916626" width="52.1666" height="52.1667" filterUnits="userSpaceOnUse" color-interpolation-filters="sRGB">
            <feFlood flood-opacity="0" result="BackgroundImageFix" />
            <feColorMatrix in="SourceAlpha" type="matrix" values="0 0 0 0 0 0 0 0 0 0 0 0 0 0 0 0 0 0 127 0" result="hardAlpha" />
            <feOffset dy="4" />
            <feGaussianBlur stdDeviation="2" />
            <feComposite in2="hardAlpha" operator="out" />
            <feColorMatrix type="matrix" values="0 0 0 0 0 0 0 0 0 0 0 0 0 0 0 0 0 0 0.25 0" />
            <feBlend mode="normal" in2="BackgroundImageFix" result="effect1_dropShadow_0_68" />
            <feBlend mode="normal" in="SourceGraphic" in2="effect1_dropShadow_0_68" result="shape" />
        </filter>
    </defs>
</svg>
    