<svg width="367" height="189" viewBox="0 0 367 189" fill="none" xmlns="http://www.w3.org/2000/svg">
    <g filter="url(#filter0_d_192_2)">
        <g clip-path="url(#clip0_192_2)">
            <g filter="url(#filter1_d_192_2)">
                <path d="M6.93689 124.329L38.4704 46.5069H8.48265V31.0046H56.7104V46.1968L25.1769 124.018H56.7104V139.521H6.93689V124.329ZM81.7989 141.071C73.5548 141.071 67.2687 138.746 62.9405 134.095C58.6124 129.341 56.4483 122.571 56.4483 113.787V31.0046H73.4517V115.027C73.4517 118.748 74.1731 121.435 75.6158 123.088C77.1616 124.742 79.3256 125.569 82.1081 125.569C84.8904 125.569 87.0027 124.742 88.4457 123.088C89.9915 121.435 90.7643 118.748 90.7643 115.027V31.0046H107.149V113.787C107.149 122.571 104.985 129.341 100.657 134.095C96.3291 138.746 90.0432 141.071 81.7989 141.071ZM156.43 31.0046H177.761L194.301 95.9593H194.61V31.0046H209.759V139.521H192.292L171.887 60.304H171.578V139.521H156.43V31.0046ZM237.7 141.071C229.353 141.071 222.963 138.694 218.532 133.94C214.101 129.186 211.886 122.468 211.886 113.787V56.7384C211.886 48.0571 214.101 41.3394 218.532 36.5854C222.963 31.8314 229.353 29.4543 237.7 29.4543C246.047 29.4543 252.436 31.8314 256.867 36.5854C261.298 41.3394 263.514 48.0571 263.514 56.7384V113.787C263.514 122.468 261.298 129.186 256.867 133.94C252.436 138.694 246.047 141.071 237.7 141.071ZM237.7 125.569C243.574 125.569 246.511 122.003 246.511 114.872V55.6533C246.511 48.5222 243.574 44.9567 237.7 44.9567C231.826 44.9567 228.889 48.5222 228.889 55.6533V114.872C228.889 122.003 231.826 125.569 237.7 125.569ZM278.428 46.5069H260.652V31.0046H313.208V46.5069H295.432V139.521H278.428V46.5069ZM312.165 31.0046H358.538V46.5069H329.169V75.1862H352.51V90.6885H329.169V124.018H358.538V139.521H312.165V31.0046Z" fill="white" />
            </g>
            <g filter="url(#filter2_d_192_2)">
                <path d="M6.93694 124.328L6.22092 124.037L6.16406 124.177V124.328H6.93694ZM38.4705 46.5069L39.1865 46.7987L39.6188 45.7317H38.4705V46.5069ZM8.48271 46.5069H7.70982V47.282H8.48271V46.5069ZM8.48271 31.0045V30.2294H7.70982V31.0045H8.48271ZM56.7105 31.0045H57.4834V30.2294H56.7105V31.0045ZM56.7105 46.1968L57.4265 46.4886L57.4834 46.3483V46.1968H56.7105ZM25.1769 124.018L24.4609 123.727L24.0286 124.794H25.1769V124.018ZM56.7105 124.018H57.4834V123.243H56.7105V124.018ZM56.7105 139.521V140.296H57.4834V139.521H56.7105ZM6.93694 139.521H6.16406V140.296H6.93694V139.521ZM7.65296 124.62L39.1865 46.7987L37.7545 46.215L6.22092 124.037L7.65296 124.62ZM38.4705 45.7317H8.48271V47.282H38.4705V45.7317ZM9.25559 46.5069V31.0045H7.70982V46.5069H9.25559ZM8.48271 31.7797H56.7105V30.2294H8.48271V31.7797ZM55.9376 31.0045V46.1968H57.4834V31.0045H55.9376ZM55.9945 45.905L24.4609 123.727L25.8929 124.31L57.4265 46.4886L55.9945 45.905ZM25.1769 124.794H56.7105V123.243H25.1769V124.794ZM55.9376 124.018V139.521H57.4834V124.018H55.9376ZM56.7105 138.746H6.93694V140.296H56.7105V138.746ZM7.70982 139.521V124.328H6.16406V139.521H7.70982ZM62.9406 134.095L62.3698 134.617L62.3756 134.624L62.9406 134.095ZM56.4484 31.0045V30.2294H55.6755V31.0045H56.4484ZM73.4518 31.0045H74.2247V30.2294H73.4518V31.0045ZM75.6158 123.088L75.0343 123.598L75.043 123.608L75.052 123.618L75.6158 123.088ZM88.4457 123.088L87.8815 122.558L87.873 122.568L87.8638 122.578L88.4457 123.088ZM90.7644 31.0045V30.2294H89.9915V31.0045H90.7644ZM107.149 31.0045H107.922V30.2294H107.149V31.0045ZM100.657 134.095L101.222 134.624L101.228 134.617L100.657 134.095ZM81.799 140.296C73.7014 140.296 67.6471 138.016 63.5056 133.566L62.3756 134.624C66.8904 139.475 73.4083 141.846 81.799 141.846V140.296ZM63.5114 133.573C59.3543 129.006 57.2213 122.45 57.2213 113.787H55.6755C55.6755 122.694 57.8707 129.675 62.3699 134.617L63.5114 133.573ZM57.2213 113.787V31.0045H55.6755V113.787H57.2213ZM56.4484 31.7797H73.4518V30.2294H56.4484V31.7797ZM72.6789 31.0045V115.027H74.2247V31.0045H72.6789ZM72.6789 115.027C72.6789 118.815 73.4074 121.734 75.0343 123.598L76.1975 122.578C74.939 121.135 74.2247 118.68 74.2247 115.027H72.6789ZM75.052 123.618C76.7766 125.463 79.165 126.344 82.1081 126.344V124.794C79.4864 124.794 77.5467 124.021 76.1797 122.558L75.052 123.618ZM82.1081 126.344C85.0489 126.344 87.4 125.464 89.0277 123.598L87.8638 122.578C86.6055 124.02 84.7321 124.794 82.1081 124.794V126.344ZM89.0092 123.618C90.7536 121.753 91.5373 118.825 91.5373 115.027H89.9915C89.9915 118.67 89.2294 121.116 87.8815 122.558L89.0092 123.618ZM91.5373 115.027V31.0045H89.9915V115.027H91.5373ZM90.7644 31.7797H107.149V30.2294H90.7644V31.7797ZM106.377 31.0045V113.787H107.922V31.0045H106.377ZM106.377 113.787C106.377 122.45 104.243 129.006 100.086 133.573L101.228 134.617C105.727 129.675 107.922 122.694 107.922 113.787H106.377ZM100.092 133.566C95.9504 138.016 89.8964 140.296 81.799 140.296V141.846C90.1894 141.846 96.7071 139.475 101.222 134.624L100.092 133.566ZM156.43 31.0045V30.2294H155.657V31.0045H156.43ZM177.761 31.0045L178.51 30.8128L178.362 30.2294H177.761V31.0045ZM194.301 95.9593L193.553 96.1507L193.701 96.7344H194.301V95.9593ZM194.61 95.9593V96.7344H195.383V95.9593H194.61ZM194.61 31.0045V30.2294H193.837V31.0045H194.61ZM209.759 31.0045H210.532V30.2294H209.759V31.0045ZM209.759 139.521V140.296H210.532V139.521H209.759ZM192.292 139.521L191.543 139.715L191.693 140.296H192.292V139.521ZM171.888 60.3039L172.636 60.1101L172.487 59.5288H171.888V60.3039ZM171.578 60.3039V59.5288H170.805V60.3039H171.578ZM171.578 139.521V140.296H172.351V139.521H171.578ZM156.43 139.521H155.657V140.296H156.43V139.521ZM156.43 31.7797H177.761V30.2294H156.43V31.7797ZM177.013 31.1963L193.553 96.1507L195.05 95.7678L178.51 30.8128L177.013 31.1963ZM194.301 96.7344H194.61V95.1841H194.301V96.7344ZM195.383 95.9593V31.0045H193.837V95.9593H195.383ZM194.61 31.7797H209.759V30.2294H194.61V31.7797ZM208.986 31.0045V139.521H210.532V31.0045H208.986ZM209.759 138.746H192.292V140.296H209.759V138.746ZM193.041 139.327L172.636 60.1101L171.139 60.4978L191.543 139.715L193.041 139.327ZM171.888 59.5288H171.578V61.079H171.888V59.5288ZM170.805 60.3039V139.521H172.351V60.3039H170.805ZM171.578 138.746H156.43V140.296H171.578V138.746ZM157.203 139.521V31.0045H155.657V139.521H157.203ZM218.532 133.94L219.097 133.411L218.532 133.94ZM218.532 36.5854L219.097 37.1147L218.532 36.5854ZM256.867 36.5854L256.302 37.1147L256.867 36.5854ZM256.867 133.94L256.302 133.411L256.867 133.94ZM237.7 140.296C229.502 140.296 223.343 137.966 219.097 133.411L217.967 134.469C222.584 139.422 229.204 141.846 237.7 141.846V140.296ZM219.097 133.411C214.84 128.843 212.659 122.339 212.659 113.787H211.113C211.113 122.598 213.363 129.529 217.967 134.469L219.097 133.411ZM212.659 113.787V56.7384H211.113V113.787H212.659ZM212.659 56.7384C212.659 48.1865 214.84 41.6827 219.097 37.1147L217.967 36.0561C213.363 40.9962 211.113 47.9276 211.113 56.7384H212.659ZM219.097 37.1147C223.343 32.5594 229.502 30.2294 237.7 30.2294V28.6792C229.204 28.6792 222.584 31.1033 217.967 36.0561L219.097 37.1147ZM237.7 30.2294C245.898 30.2294 252.057 32.5594 256.302 37.1147L257.432 36.0561C252.816 31.1033 246.196 28.6792 237.7 28.6792V30.2294ZM256.302 37.1147C260.56 41.6827 262.741 48.1865 262.741 56.7384H264.287C264.287 47.9276 262.036 40.9962 257.432 36.0561L256.302 37.1147ZM262.741 56.7384V113.787H264.287V56.7384H262.741ZM262.741 113.787C262.741 122.339 260.56 128.843 256.302 133.411L257.432 134.469C262.036 129.529 264.287 122.598 264.287 113.787H262.741ZM256.302 133.411C252.057 137.966 245.898 140.296 237.7 140.296V141.846C246.196 141.846 252.816 139.422 257.432 134.469L256.302 133.411ZM237.7 126.344C240.799 126.344 243.25 125.396 244.904 123.388C246.535 121.409 247.284 118.525 247.284 114.872H245.738C245.738 118.35 245.018 120.815 243.712 122.401C242.429 123.959 240.475 124.794 237.7 124.794V126.344ZM247.284 114.872V55.6532H245.738V114.872H247.284ZM247.284 55.6532C247.284 52.0004 246.535 49.1167 244.904 47.1371C243.25 45.1292 240.799 44.1815 237.7 44.1815V45.7317C240.475 45.7317 242.429 46.5668 243.712 48.1245C245.018 49.7104 245.738 52.175 245.738 55.6532H247.284ZM237.7 44.1815C234.601 44.1815 232.15 45.1292 230.496 47.1371C228.865 49.1167 228.116 52.0004 228.116 55.6532H229.662C229.662 52.175 230.382 49.7104 231.688 48.1245C232.971 46.5668 234.925 45.7317 237.7 45.7317V44.1815ZM228.116 55.6532V114.872H229.662V55.6532H228.116ZM228.116 114.872C228.116 118.525 228.865 121.409 230.496 123.388C232.15 125.396 234.601 126.344 237.7 126.344V124.794C234.925 124.794 232.971 123.959 231.688 122.401C230.382 120.815 229.662 118.35 229.662 114.872H228.116ZM278.428 46.5069H279.201V45.7317H278.428V46.5069ZM260.652 46.5069H259.879V47.282H260.652V46.5069ZM260.652 31.0045V30.2294H259.879V31.0045H260.652ZM313.208 31.0045H313.981V30.2294H313.208V31.0045ZM313.208 46.5069V47.282H313.981V46.5069H313.208ZM295.432 46.5069V45.7317H294.659V46.5069H295.432ZM295.432 139.521V140.296H296.205V139.521H295.432ZM278.428 139.521H277.656V140.296H278.428V139.521ZM278.428 45.7317H260.652V47.282H278.428V45.7317ZM261.425 46.5069V31.0045H259.879V46.5069H261.425ZM260.652 31.7797H313.208V30.2294H260.652V31.7797ZM312.435 31.0045V46.5069H313.981V31.0045H312.435ZM313.208 45.7317H295.432V47.282H313.208V45.7317ZM294.659 46.5069V139.521H296.205V46.5069H294.659ZM295.432 138.746H278.428V140.296H295.432V138.746ZM279.201 139.521V46.5069H277.656V139.521H279.201ZM312.165 31.0045V30.2294H311.393V31.0045H312.165ZM358.538 31.0045H359.311V30.2294H358.538V31.0045ZM358.538 46.5069V47.282H359.311V46.5069H358.538ZM329.169 46.5069V45.7317H328.396V46.5069H329.169ZM329.169 75.1862H328.396V75.9613H329.169V75.1862ZM352.51 75.1862H353.283V74.411H352.51V75.1862ZM352.51 90.6885V91.4636H353.283V90.6885H352.51ZM329.169 90.6885V89.9134H328.396V90.6885H329.169ZM329.169 124.018H328.396V124.794H329.169V124.018ZM358.538 124.018H359.311V123.243H358.538V124.018ZM358.538 139.521V140.296H359.311V139.521H358.538ZM312.165 139.521H311.393V140.296H312.165V139.521ZM312.165 31.7797H358.538V30.2294H312.165V31.7797ZM357.765 31.0045V46.5069H359.311V31.0045H357.765ZM358.538 45.7317H329.169V47.282H358.538V45.7317ZM328.396 46.5069V75.1862H329.942V46.5069H328.396ZM329.169 75.9613H352.51V74.411H329.169V75.9613ZM351.737 75.1862V90.6885H353.283V75.1862H351.737ZM352.51 89.9134H329.169V91.4636H352.51V89.9134ZM328.396 90.6885V124.018H329.942V90.6885H328.396ZM329.169 124.794H358.538V123.243H329.169V124.794ZM357.765 124.018V139.521H359.311V124.018H357.765ZM358.538 138.746H312.165V140.296H358.538V138.746ZM312.938 139.521V31.0045H311.393V139.521H312.938Z" fill="#FFC330" />
            </g>
            <g filter="url(#filter3_d_192_2)">
                <path d="M108.34 155.379C108.043 156.35 108.092 157.395 108.48 158.333C108.868 159.272 109.572 160.042 110.466 160.511C111.361 160.98 112.391 161.117 113.376 160.899C114.361 160.681 115.239 160.121 115.856 159.318L174.867 79.6401L108.34 155.379ZM108.34 155.379L123.256 106.533H123.845V104.606L122.016 104.039L121.843 104.606M108.34 155.379L121.843 104.606ZM114.463 25.8534C114.608 25.3538 114.911 24.9148 115.325 24.6029C115.739 24.291 116.242 24.1226 116.759 24.1229H151.193C151.572 24.1233 151.945 24.2142 152.282 24.3882C152.619 24.5623 152.91 24.8145 153.131 25.1241C153.353 25.4338 153.497 25.7919 153.555 26.1692C153.612 26.5465 153.579 26.932 153.46 27.294L138.137 73.6346L137.297 76.1717H139.952H172.716H172.717C173.165 76.1714 173.604 76.2977 173.984 76.5365C174.364 76.7752 174.669 77.117 174.867 77.5219C175.063 77.9275 175.144 78.3801 175.097 78.8289C175.051 79.2776 174.881 79.7048 174.606 80.0611L114.346 158.134L114.343 158.138C114.001 158.585 113.512 158.895 112.965 159.016C112.418 159.137 111.846 159.061 111.349 158.8C110.852 158.54 129.127 136.644 128.911 136.123C128.695 135.602 110.002 156.489 110.168 155.95L110.169 155.946L125.673 105.172L126.435 102.678H123.845H95.2385C94.8666 102.678 94.4985 102.591 94.1664 102.424C93.8336 102.256 93.5451 102.013 93.3216 101.713C93.099 101.413 92.949 101.065 92.8824 100.696C92.8166 100.328 92.8373 99.9483 92.9413 99.589L114.463 25.8534Z" fill="white" />
                <path d="M108.34 155.379C108.043 156.35 108.092 157.395 108.48 158.333C108.868 159.272 109.572 160.042 110.466 160.511C111.361 160.98 112.391 161.117 113.376 160.899C114.361 160.681 115.239 160.121 115.856 159.318L174.867 79.6401L108.34 155.379ZM108.34 155.379L123.256 106.533H123.845V104.606L122.016 104.039L121.843 104.606M108.34 155.379L121.843 104.606M121.843 104.606L95.7436 102.796M153.131 25.1241C152.91 24.8145 152.619 24.5623 152.282 24.3882C151.945 24.2142 151.572 24.1233 151.193 24.1229H116.759C116.242 24.1226 115.739 24.291 115.325 24.6029C114.911 24.9148 114.608 25.3538 114.463 25.8534L92.9413 99.589C92.8373 99.9483 92.8166 100.328 92.8824 100.696M153.131 25.1241L154.68 24M153.131 25.1241C153.353 25.4338 153.497 25.7919 153.555 26.1692C153.612 26.5465 153.579 26.932 153.46 27.294L138.137 73.6346L137.297 76.1717H139.952H172.716H172.717C173.165 76.1714 173.604 76.2977 173.984 76.5365C174.364 76.7752 174.669 77.117 174.867 77.5219C175.063 77.9275 175.144 78.3801 175.097 78.8289M175.097 78.8289L177 79.027M175.097 78.8289C175.051 79.2776 174.881 79.7048 174.606 80.0611L114.346 158.134L114.343 158.138C114.001 158.585 113.512 158.895 112.965 159.016C112.418 159.137 111.846 159.061 111.349 158.8C110.852 158.54 129.127 136.644 128.911 136.123C128.695 135.602 110.002 156.489 110.168 155.95L110.169 155.946L125.673 105.172L126.435 102.678H123.845H95.2385C94.8666 102.678 94.4985 102.591 94.1664 102.424C93.8336 102.256 93.5451 102.013 93.3216 101.713C93.099 101.413 92.949 101.065 92.8824 100.696M92.8824 100.696L91 101.038" stroke="#FFC330" stroke-width="5" />
            </g>
        </g>
    </g>
    <defs>
        <filter id="filter0_d_192_2" x="0" y="0" width="366.617" height="189" filterUnits="userSpaceOnUse" color-interpolation-filters="sRGB">
            <feFlood flood-opacity="0" result="BackgroundImageFix" />
            <feColorMatrix in="SourceAlpha" type="matrix" values="0 0 0 0 0 0 0 0 0 0 0 0 0 0 0 0 0 0 127 0" result="hardAlpha" />
            <feOffset dy="4" />
            <feGaussianBlur stdDeviation="2" />
            <feComposite in2="hardAlpha" operator="out" />
            <feColorMatrix type="matrix" values="0 0 0 0 0 0 0 0 0 0 0 0 0 0 0 0 0 0 0.25 0" />
            <feBlend mode="normal" in2="BackgroundImageFix" result="effect1_dropShadow_192_2" />
            <feBlend mode="normal" in="SourceGraphic" in2="effect1_dropShadow_192_2" result="shape" />
        </filter>
        <filter id="filter1_d_192_2" x="2.93689" y="29.4543" width="359.601" height="119.617" filterUnits="userSpaceOnUse" color-interpolation-filters="sRGB">
            <feFlood flood-opacity="0" result="BackgroundImageFix" />
            <feColorMatrix in="SourceAlpha" type="matrix" values="0 0 0 0 0 0 0 0 0 0 0 0 0 0 0 0 0 0 127 0" result="hardAlpha" />
            <feOffset dy="4" />
            <feGaussianBlur stdDeviation="2" />
            <feComposite in2="hardAlpha" operator="out" />
            <feColorMatrix type="matrix" values="0 0 0 0 0 0 0 0 0 0 0 0 0 0 0 0 0 0 0.25 0" />
            <feBlend mode="normal" in2="BackgroundImageFix" result="effect1_dropShadow_192_2" />
            <feBlend mode="normal" in="SourceGraphic" in2="effect1_dropShadow_192_2" result="shape" />
        </filter>
        <filter id="filter2_d_192_2" x="2.16406" y="28.6792" width="361.147" height="121.167" filterUnits="userSpaceOnUse" color-interpolation-filters="sRGB">
            <feFlood flood-opacity="0" result="BackgroundImageFix" />
            <feColorMatrix in="SourceAlpha" type="matrix" values="0 0 0 0 0 0 0 0 0 0 0 0 0 0 0 0 0 0 127 0" result="hardAlpha" />
            <feOffset dy="4" />
            <feGaussianBlur stdDeviation="2" />
            <feComposite in2="hardAlpha" operator="out" />
            <feColorMatrix type="matrix" values="0 0 0 0 0 0 0 0 0 0 0 0 0 0 0 0 0 0 0.25 0" />
            <feBlend mode="normal" in2="BackgroundImageFix" result="effect1_dropShadow_192_2" />
            <feBlend mode="normal" in="SourceGraphic" in2="effect1_dropShadow_192_2" result="shape" />
        </filter>
        <filter id="filter3_d_192_2" x="86.3447" y="21.6228" width="95.2652" height="149.877" filterUnits="userSpaceOnUse" color-interpolation-filters="sRGB">
            <feFlood flood-opacity="0" result="BackgroundImageFix" />
            <feColorMatrix in="SourceAlpha" type="matrix" values="0 0 0 0 0 0 0 0 0 0 0 0 0 0 0 0 0 0 127 0" result="hardAlpha" />
            <feOffset dy="4" />
            <feGaussianBlur stdDeviation="2" />
            <feComposite in2="hardAlpha" operator="out" />
            <feColorMatrix type="matrix" values="0 0 0 0 0 0 0 0 0 0 0 0 0 0 0 0 0 0 0.25 0" />
            <feBlend mode="normal" in2="BackgroundImageFix" result="effect1_dropShadow_192_2" />
            <feBlend mode="normal" in="SourceGraphic" in2="effect1_dropShadow_192_2" result="shape" />
        </filter>
        <clipPath id="clip0_192_2">
            <rect width="358.617" height="181" fill="white" transform="translate(4)" />
        </clipPath>
    </defs>
</svg>
    