<svg width="27" height="26" viewBox="0 0 27 26" fill="none" xmlns="http://www.w3.org/2000/svg">
    <path d="M23.4297 19.4454H21.3701C21.2295 19.4454 21.0977 19.5069 21.0098 19.6153C20.8047 19.8643 20.585 20.1045 20.3535 20.3331C19.4069 21.2806 18.2857 22.0357 17.0518 22.5567C15.7734 23.0966 14.3994 23.3736 13.0117 23.3711C11.6084 23.3711 10.249 23.0957 8.97168 22.5567C7.73778 22.0357 6.61653 21.2806 5.66992 20.3331C4.72163 19.3887 3.96548 18.2694 3.44336 17.0372C2.90137 15.7598 2.62891 14.4034 2.62891 13C2.62891 11.5967 2.9043 10.2403 3.44336 8.96294C3.96485 7.72954 4.71485 6.61919 5.66992 5.66704C6.625 4.71489 7.73535 3.96489 8.97168 3.4434C10.249 2.90434 11.6084 2.62895 13.0117 2.62895C14.415 2.62895 15.7744 2.90141 17.0518 3.4434C18.2881 3.96489 19.3984 4.71489 20.3535 5.66704C20.585 5.89848 20.8018 6.13872 21.0098 6.38481C21.0977 6.49321 21.2324 6.55473 21.3701 6.55473H23.4297C23.6143 6.55473 23.7285 6.34965 23.626 6.19438C21.3789 2.70219 17.4473 0.390669 12.9795 0.402388C5.95996 0.419966 0.332034 6.11821 0.402347 13.129C0.472659 20.0284 6.0918 25.5977 13.0117 25.5977C17.4678 25.5977 21.3818 23.2891 23.626 19.8057C23.7256 19.6504 23.6143 19.4454 23.4297 19.4454ZM26.0342 12.8155L21.877 9.53423C21.7217 9.41118 21.4961 9.52251 21.4961 9.7188V11.9454H12.2969C12.168 11.9454 12.0625 12.0508 12.0625 12.1797V13.8204C12.0625 13.9493 12.168 14.0547 12.2969 14.0547H21.4961V16.2813C21.4961 16.4776 21.7246 16.5889 21.877 16.4659L26.0342 13.1846C26.0622 13.1627 26.0848 13.1347 26.1004 13.1027C26.116 13.0707 26.1241 13.0356 26.1241 13C26.1241 12.9645 26.116 12.9294 26.1004 12.8974C26.0848 12.8654 26.0622 12.8374 26.0342 12.8155V12.8155Z" fill="black" />
</svg>
    