<svg width="129" height="65" viewBox="0 0 129 65" fill="none" xmlns="http://www.w3.org/2000/svg">
    <path d="M1.0562 44.6483L12.3965 16.7014H1.6121V11.1342H18.9561V16.59L7.61579 44.537H18.9561V50.1041H1.0562V44.6483ZM27.9786 50.6608C25.0138 50.6608 22.7531 49.8258 21.1966 48.1556C19.6401 46.4485 18.8619 44.0173 18.8619 40.8627V11.1342H24.9767V41.3081C24.9767 42.6442 25.2362 43.6092 25.755 44.203C26.3109 44.7967 27.0891 45.0937 28.0898 45.0937C29.0904 45.0937 29.85 44.7967 30.369 44.203C30.9249 43.6092 31.2028 42.6442 31.2028 41.3081V11.1342H37.0953V40.8627C37.0953 44.0173 36.3171 46.4485 34.7605 48.1556C33.204 49.8258 30.9435 50.6608 27.9786 50.6608ZM54.8179 11.1342H62.4893L68.4374 34.4605H68.5486V11.1342H73.9964V50.1041H67.7147L60.3769 21.6561H60.2657V50.1041H54.8179V11.1342ZM84.0448 50.6608C81.0429 50.6608 78.7451 49.8071 77.1516 48.1C75.5582 46.3928 74.7613 43.9803 74.7613 40.8627V20.3757C74.7613 17.2581 75.5582 14.8456 77.1516 13.1384C78.7451 11.4312 81.0429 10.5775 84.0448 10.5775C87.0466 10.5775 89.3444 11.4312 90.9379 13.1384C92.5314 14.8456 93.3283 17.2581 93.3283 20.3757V40.8627C93.3283 43.9803 92.5314 46.3928 90.9379 48.1C89.3444 49.8071 87.0466 50.6608 84.0448 50.6608ZM84.0448 45.0937C86.1572 45.0937 87.2134 43.8133 87.2134 41.2524V19.986C87.2134 17.4251 86.1572 16.1446 84.0448 16.1446C81.9324 16.1446 80.8762 17.4251 80.8762 19.986V41.2524C80.8762 43.8133 81.9324 45.0937 84.0448 45.0937ZM98.6918 16.7014H92.299V11.1342H111.2V16.7014H104.807V50.1041H98.6918V16.7014ZM110.825 11.1342H127.502V16.7014H116.939V27.0005H125.334V32.5677H116.939V44.537H127.502V50.1041H110.825V11.1342Z" fill="white" />
    <path d="M1.05621 44.6484L0.798712 44.5437L0.778263 44.5941V44.6484H1.05621ZM12.3965 16.7014L12.654 16.8062L12.8095 16.423H12.3965V16.7014ZM1.61211 16.7014H1.33416V16.9798H1.61211V16.7014ZM1.61211 11.1343V10.8559H1.33416V11.1343H1.61211ZM18.9561 11.1343H19.2341V10.8559H18.9561V11.1343ZM18.9561 16.5901L19.2136 16.6949L19.2341 16.6444V16.5901H18.9561ZM7.6158 44.537L7.35831 44.4324L7.20283 44.8154H7.6158V44.537ZM18.9561 44.537H19.2341V44.2587H18.9561V44.537ZM18.9561 50.1042V50.3825H19.2341V50.1042H18.9561ZM1.05621 50.1042H0.778263V50.3825H1.05621V50.1042ZM1.31371 44.753L12.654 16.8062L12.139 16.5966L0.798712 44.5437L1.31371 44.753ZM12.3965 16.423H1.61211V16.9798H12.3965V16.423ZM1.89006 16.7014V11.1343H1.33416V16.7014H1.89006ZM1.61211 11.4126H18.9561V10.8559H1.61211V11.4126ZM18.6782 11.1343V16.5901H19.2341V11.1343H18.6782ZM18.6986 16.4852L7.35831 44.4324L7.8733 44.6417L19.2136 16.6949L18.6986 16.4852ZM7.6158 44.8154H18.9561V44.2587H7.6158V44.8154ZM18.6782 44.537V50.1042H19.2341V44.537H18.6782ZM18.9561 49.8258H1.05621V50.3825H18.9561V49.8258ZM1.33416 50.1042V44.6484H0.778263V50.1042H1.33416ZM21.1966 48.1557L20.9914 48.3433L20.9935 48.3455L21.1966 48.1557ZM18.8619 11.1343V10.8559H18.5839V11.1343H18.8619ZM24.9767 11.1343H25.2547V10.8559H24.9767V11.1343ZM25.755 44.203L25.5458 44.3862L25.549 44.3898L25.5522 44.3934L25.755 44.203ZM30.369 44.203L30.1661 44.0126L30.163 44.0162L30.1597 44.0196L30.369 44.203ZM31.2028 11.1343V10.8559H30.9249V11.1343H31.2028ZM37.0953 11.1343H37.3733V10.8559H37.0953V11.1343ZM34.7606 48.1557L34.9637 48.3455L34.9657 48.3433L34.7606 48.1557ZM27.9786 50.3825C25.0665 50.3825 22.8892 49.5639 21.3998 47.9658L20.9935 48.3455C22.6171 50.0878 24.9611 50.9392 27.9786 50.9392V50.3825ZM21.4019 47.9681C19.9069 46.3283 19.1398 43.9737 19.1398 40.8627H18.5839C18.5839 44.0613 19.3733 46.5685 20.9914 48.3433L21.4019 47.9681ZM19.1398 40.8627V11.1343H18.5839V40.8627H19.1398ZM18.8619 11.4126H24.9767V10.8559H18.8619V11.4126ZM24.6988 11.1343V41.3081H25.2547V11.1343H24.6988ZM24.6988 41.3081C24.6988 42.6684 24.9608 43.7167 25.5458 44.3862L25.9642 44.0196C25.5116 43.5016 25.2547 42.62 25.2547 41.3081H24.6988ZM25.5522 44.3934C26.1724 45.0559 27.0314 45.3721 28.0898 45.3721V44.8154C27.1469 44.8154 26.4494 44.5379 25.9578 44.0126L25.5522 44.3934ZM28.0898 45.3721C29.1474 45.3721 29.9929 45.0562 30.5783 44.3862L30.1597 44.0196C29.7072 44.5376 29.0334 44.8154 28.0898 44.8154V45.3721ZM30.5716 44.3934C31.1989 43.7234 31.4808 42.6721 31.4808 41.3081H30.9249C30.9249 42.6164 30.6508 43.4949 30.1661 44.0126L30.5716 44.3934ZM31.4808 41.3081V11.1343H30.9249V41.3081H31.4808ZM31.2028 11.4126H37.0953V10.8559H31.2028V11.4126ZM36.8174 11.1343V40.8627H37.3733V11.1343H36.8174ZM36.8174 40.8627C36.8174 43.9737 36.0502 46.3283 34.5552 47.9681L34.9657 48.3433C36.5839 46.5685 37.3733 44.0613 37.3733 40.8627H36.8174ZM34.5574 47.9658C33.0679 49.5639 30.8907 50.3825 27.9786 50.3825V50.9392C30.996 50.9392 33.34 50.0878 34.9637 48.3455L34.5574 47.9658ZM54.8179 11.1343V10.8559H54.54V11.1343H54.8179ZM62.4893 11.1343L62.7586 11.0654L62.7053 10.8559H62.4893V11.1343ZM68.4374 34.4605L68.1683 34.5293L68.2217 34.7389H68.4374V34.4605ZM68.5486 34.4605V34.7389H68.8265V34.4605H68.5486ZM68.5486 11.1343V10.8559H68.2706V11.1343H68.5486ZM73.9964 11.1343H74.2743V10.8559H73.9964V11.1343ZM73.9964 50.1042V50.3825H74.2743V50.1042H73.9964ZM67.7147 50.1042L67.4457 50.1738L67.4996 50.3825H67.7147V50.1042ZM60.3769 21.6561L60.6462 21.5865L60.5923 21.3778H60.3769V21.6561ZM60.2657 21.6561V21.3778H59.9877V21.6561H60.2657ZM60.2657 50.1042V50.3825H60.5436V50.1042H60.2657ZM54.8179 50.1042H54.54V50.3825H54.8179V50.1042ZM54.8179 11.4126H62.4893V10.8559H54.8179V11.4126ZM62.2202 11.2031L68.1683 34.5293L68.7067 34.3918L62.7586 11.0654L62.2202 11.2031ZM68.4374 34.7389H68.5486V34.1822H68.4374V34.7389ZM68.8265 34.4605V11.1343H68.2706V34.4605H68.8265ZM68.5486 11.4126H73.9964V10.8559H68.5486V11.4126ZM73.7184 11.1343V50.1042H74.2743V11.1343H73.7184ZM73.9964 49.8258H67.7147V50.3825H73.9964V49.8258ZM67.9841 50.0346L60.6462 21.5865L60.1078 21.7258L67.4457 50.1738L67.9841 50.0346ZM60.3769 21.3778H60.2657V21.9345H60.3769V21.3778ZM59.9877 21.6561V50.1042H60.5436V21.6561H59.9877ZM60.2657 49.8258H54.8179V50.3825H60.2657V49.8258ZM55.0959 50.1042V11.1343H54.54V50.1042H55.0959ZM77.1517 48.1L77.3548 47.9099L77.1517 48.1ZM77.1517 13.1384L77.3548 13.3285L77.1517 13.1384ZM90.9379 13.1384L90.7347 13.3285L90.9379 13.1384ZM90.9379 48.1L90.7347 47.9099L90.9379 48.1ZM84.0448 50.3825C81.0966 50.3825 78.8816 49.5458 77.3548 47.9099L76.9485 48.2901C78.6087 50.0688 80.9893 50.9392 84.0448 50.9392V50.3825ZM77.3548 47.9099C75.8236 46.2695 75.0392 43.9338 75.0392 40.8627H74.4833C74.4833 44.0268 75.2927 46.5159 76.9485 48.2901L77.3548 47.9099ZM75.0392 40.8627V20.3757H74.4833V40.8627H75.0392ZM75.0392 20.3757C75.0392 17.3046 75.8236 14.969 77.3548 13.3285L76.9485 12.9483C75.2927 14.7224 74.4833 17.2116 74.4833 20.3757H75.0392ZM77.3548 13.3285C78.8816 11.6926 81.0966 10.8559 84.0448 10.8559V10.2992C80.9893 10.2992 78.6087 11.1697 76.9485 12.9483L77.3548 13.3285ZM84.0448 10.8559C86.993 10.8559 89.208 11.6926 90.7347 13.3285L91.1411 12.9483C89.4809 11.1697 87.1003 10.2992 84.0448 10.2992V10.8559ZM90.7347 13.3285C92.2659 14.969 93.0503 17.3046 93.0503 20.3757H93.6062C93.6062 17.2116 92.7968 14.7224 91.1411 12.9483L90.7347 13.3285ZM93.0503 20.3757V40.8627H93.6062V20.3757H93.0503ZM93.0503 40.8627C93.0503 43.9338 92.2659 46.2695 90.7347 47.9099L91.1411 48.2901C92.7968 46.5159 93.6062 44.0268 93.6062 40.8627H93.0503ZM90.7347 47.9099C89.208 49.5458 86.993 50.3825 84.0448 50.3825V50.9392C87.1003 50.9392 89.4809 50.0688 91.1411 48.2901L90.7347 47.9099ZM84.0448 45.3721C85.1594 45.3721 86.0407 45.0317 86.6355 44.3107C87.222 43.5998 87.4913 42.5643 87.4913 41.2524H86.9354C86.9354 42.5014 86.6767 43.3866 86.2069 43.9561C85.7455 44.5156 85.0426 44.8154 84.0448 44.8154V45.3721ZM87.4913 41.2524V19.986H86.9354V41.2524H87.4913ZM87.4913 19.986C87.4913 18.6742 87.222 17.6386 86.6355 16.9277C86.0407 16.2067 85.1594 15.8663 84.0448 15.8663V16.423C85.0426 16.423 85.7455 16.7229 86.2069 17.2823C86.6767 17.8518 86.9354 18.7369 86.9354 19.986H87.4913ZM84.0448 15.8663C82.9302 15.8663 82.0488 16.2067 81.454 16.9277C80.8675 17.6386 80.5982 18.6742 80.5982 19.986H81.1541C81.1541 18.7369 81.4129 17.8518 81.8826 17.2823C82.344 16.7229 83.0469 16.423 84.0448 16.423V15.8663ZM80.5982 19.986V41.2524H81.1541V19.986H80.5982ZM80.5982 41.2524C80.5982 42.5643 80.8675 43.5998 81.454 44.3107C82.0488 45.0317 82.9302 45.3721 84.0448 45.3721V44.8154C83.0469 44.8154 82.344 44.5156 81.8826 43.9561C81.4129 43.3866 81.1541 42.5014 81.1541 41.2524H80.5982ZM98.6918 16.7014H98.9698V16.423H98.6918V16.7014ZM92.299 16.7014H92.0211V16.9798H92.299V16.7014ZM92.299 11.1343V10.8559H92.0211V11.1343H92.299ZM111.2 11.1343H111.477V10.8559H111.2V11.1343ZM111.2 16.7014V16.9798H111.477V16.7014H111.2ZM104.807 16.7014V16.423H104.529V16.7014H104.807ZM104.807 50.1042V50.3825H105.085V50.1042H104.807ZM98.6918 50.1042H98.4139V50.3825H98.6918V50.1042ZM98.6918 16.423H92.299V16.9798H98.6918V16.423ZM92.577 16.7014V11.1343H92.0211V16.7014H92.577ZM92.299 11.4126H111.2V10.8559H92.299V11.4126ZM110.922 11.1343V16.7014H111.477V11.1343H110.922ZM111.2 16.423H104.807V16.9798H111.2V16.423ZM104.529 16.7014V50.1042H105.085V16.7014H104.529ZM104.807 49.8258H98.6918V50.3825H104.807V49.8258ZM98.9698 50.1042V16.7014H98.4139V50.1042H98.9698ZM110.825 11.1343V10.8559H110.547V11.1343H110.825ZM127.502 11.1343H127.779V10.8559H127.502V11.1343ZM127.502 16.7014V16.9798H127.779V16.7014H127.502ZM116.939 16.7014V16.423H116.662V16.7014H116.939ZM116.939 27.0006H116.662V27.2789H116.939V27.0006ZM125.334 27.0006H125.611V26.7222H125.334V27.0006ZM125.334 32.5677V32.8461H125.611V32.5677H125.334ZM116.939 32.5677V32.2894H116.662V32.5677H116.939ZM116.939 44.537H116.662V44.8154H116.939V44.537ZM127.502 44.537H127.779V44.2587H127.502V44.537ZM127.502 50.1042V50.3825H127.779V50.1042H127.502ZM110.825 50.1042H110.547V50.3825H110.825V50.1042ZM110.825 11.4126H127.502V10.8559H110.825V11.4126ZM127.224 11.1343V16.7014H127.779V11.1343H127.224ZM127.502 16.423H116.939V16.9798H127.502V16.423ZM116.662 16.7014V27.0006H117.217V16.7014H116.662ZM116.939 27.2789H125.334V26.7222H116.939V27.2789ZM125.056 27.0006V32.5677H125.611V27.0006H125.056ZM125.334 32.2894H116.939V32.8461H125.334V32.2894ZM116.662 32.5677V44.537H117.217V32.5677H116.662ZM116.939 44.8154H127.502V44.2587H116.939V44.8154ZM127.224 44.537V50.1042H127.779V44.537H127.224ZM127.502 49.8258H110.825V50.3825H127.502V49.8258ZM111.103 50.1042V11.1343H110.547V50.1042H111.103Z" fill="#FFC330" />
    <path d="M37.6612 56.1504C37.5531 56.5008 37.5709 56.8783 37.7121 57.2167C37.853 57.5555 38.1085 57.8336 38.4334 58.0028C38.7586 58.1721 39.1324 58.2216 39.4904 58.1431C39.8481 58.0643 40.1669 57.8623 40.3913 57.5722L62.2797 29.3886L37.6612 56.1504ZM37.6612 56.1504L43.079 38.5176H43.293V37.8217L42.6287 37.6171L42.5659 37.8217M37.6612 56.1504L42.5659 37.8217L37.6612 56.1504ZM42.5659 37.8217H32.9022H42.5659ZM39.8851 9.39294L39.8854 9.3928C39.9382 9.21245 40.048 9.05412 40.1984 8.94152C40.3487 8.82893 40.5313 8.76814 40.7192 8.76825H40.7195H53.2269C53.3645 8.76839 53.4999 8.8012 53.6222 8.864C53.7447 8.92685 53.8504 9.01791 53.9307 9.12967L54.4933 8.72388L53.9307 9.12967C54.0113 9.24145 54.0638 9.37075 54.0847 9.50695C54.1055 9.64312 54.0936 9.7823 54.0502 9.91299L48.4843 26.6414L48.1794 27.5573H49.1436H61.0445H61.0451C61.2077 27.5572 61.3672 27.6028 61.5051 27.689C61.6432 27.7752 61.7541 27.8986 61.8258 28.0447C61.8973 28.1911 61.9264 28.3545 61.9095 28.5165L62.6008 28.5881L61.9095 28.5165C61.8928 28.6785 61.8311 28.8327 61.7311 28.9613L39.8426 57.1449L39.8417 57.1463C39.7172 57.3075 39.5399 57.4197 39.3412 57.4634C39.1424 57.5071 38.9345 57.4795 38.7541 57.3854C38.5735 57.2913 38.4317 57.1369 38.3533 56.9487C38.275 56.7608 38.2649 56.5509 38.3253 56.3563L38.3255 56.3549L43.9571 38.0263L44.2339 37.1258H43.293H32.9022H32.9019C32.7668 37.1258 32.6334 37.0944 32.5128 37.034C32.3919 36.9736 32.2871 36.8856 32.2059 36.7773C32.1251 36.669 32.0706 36.5435 32.0464 36.4104L31.3626 36.5337L32.0464 36.4104C32.0225 36.2774 32.03 36.1404 32.0678 36.0107C32.0678 36.0107 32.0678 36.0107 32.0681 36.0107L39.8851 9.39294Z" fill="white" />
    <path d="M37.6612 56.1504L43.079 38.5176H43.293V37.8217L42.6287 37.6171L42.5659 37.8217M37.6612 56.1504L42.5659 37.8217M37.6612 56.1504C37.5531 56.5008 37.5709 56.8783 37.7121 57.2167C37.853 57.5555 38.1085 57.8336 38.4334 58.0028C38.7586 58.1721 39.1324 58.2216 39.4904 58.1431C39.8481 58.0643 40.1669 57.8623 40.3913 57.5722L62.2797 29.3886L37.6612 56.1504ZM42.5659 37.8217H32.9022H42.5659ZM39.8851 9.39294L39.8854 9.3928C39.9382 9.21245 40.048 9.05412 40.1984 8.94152C40.3487 8.82893 40.5313 8.76814 40.7192 8.76825H40.7195H53.2269C53.3645 8.76839 53.4999 8.8012 53.6222 8.864C53.7447 8.92685 53.8504 9.01791 53.9307 9.12967L54.4933 8.72388L53.9307 9.12967C54.0113 9.24145 54.0638 9.37075 54.0847 9.50695C54.1055 9.64312 54.0936 9.7823 54.0502 9.91299L48.4843 26.6414L48.1794 27.5573H49.1436H61.0445H61.0451C61.2077 27.5572 61.3672 27.6028 61.5051 27.689C61.6432 27.7752 61.7541 27.8986 61.8258 28.0447C61.8973 28.1911 61.9264 28.3545 61.9095 28.5165L62.6008 28.5881L61.9095 28.5165C61.8928 28.6785 61.8311 28.8327 61.7311 28.9613L39.8426 57.1449L39.8417 57.1463C39.7172 57.3075 39.5399 57.4197 39.3412 57.4634C39.1424 57.5071 38.9345 57.4795 38.7541 57.3854C38.5735 57.2913 38.4317 57.1369 38.3533 56.9487C38.275 56.7608 38.2649 56.5509 38.3253 56.3563L38.3255 56.355L43.9571 38.0263L44.2339 37.1258H43.293H32.9022H32.9019C32.7668 37.1258 32.6334 37.0944 32.5128 37.034C32.3919 36.9736 32.2871 36.8856 32.2059 36.7773C32.1251 36.669 32.0706 36.5435 32.0464 36.4104L31.3626 36.5337L32.0464 36.4104C32.0225 36.2774 32.03 36.1404 32.0678 36.0107C32.0678 36.0107 32.0678 36.0107 32.0681 36.0107L39.8851 9.39294Z" stroke="#FFC330" stroke-width="5" />
</svg>
    