<svg width="46" height="54" viewBox="0 0 46 54" fill="none" xmlns="http://www.w3.org/2000/svg">
    <g filter="url(#filter0_d_1_3)">
        <path d="M7 7V39C7 40.0609 7.42143 41.0783 8.17157 41.8284C8.92172 42.5786 9.93913 43 11 43H35C36.0609 43 37.0783 42.5786 37.8284 41.8284C38.5786 41.0783 39 40.0609 39 39V15.684C38.9999 15.1511 38.8934 14.6236 38.6866 14.1325C38.4799 13.6414 38.1771 13.1965 37.796 12.824L28.916 4.14C28.1687 3.40932 27.1651 3.00013 26.12 3H11C9.93913 3 8.92172 3.42143 8.17157 4.17157C7.42143 4.92172 7 5.93913 7 7V7Z" stroke="black" stroke-width="4.16667" stroke-linecap="round" stroke-linejoin="round" />
        <path d="M27 3V11C27 12.0609 27.4214 13.0783 28.1716 13.8284C28.9217 14.5786 29.9391 15 31 15H39" stroke="black" stroke-width="4.16667" stroke-linejoin="round" />
    </g>
    <defs>
        <filter id="filter0_d_1_3" x="0.916687" y="0.916626" width="44.1666" height="52.1667" filterUnits="userSpaceOnUse" color-interpolation-filters="sRGB">
            <feFlood flood-opacity="0" result="BackgroundImageFix" />
            <feColorMatrix in="SourceAlpha" type="matrix" values="0 0 0 0 0 0 0 0 0 0 0 0 0 0 0 0 0 0 127 0" result="hardAlpha" />
            <feOffset dy="4" />
            <feGaussianBlur stdDeviation="2" />
            <feComposite in2="hardAlpha" operator="out" />
            <feColorMatrix type="matrix" values="0 0 0 0 0 0 0 0 0 0 0 0 0 0 0 0 0 0 0.25 0" />
            <feBlend mode="normal" in2="BackgroundImageFix" result="effect1_dropShadow_1_3" />
            <feBlend mode="normal" in="SourceGraphic" in2="effect1_dropShadow_1_3" result="shape" />
        </filter>
    </defs>
</svg>
    