<svg width="121" height="67" viewBox="0 0 121 67" fill="none" xmlns="http://www.w3.org/2000/svg">
    <path d="M0.456848 1.37469H13.0672L22.8448 39.7733H23.0275V1.37469H31.9827V65.5251H21.6568L9.59478 18.6953H9.41201V65.5251H0.456848V1.37469ZM48.5004 66.4416C43.5659 66.4416 39.7888 65.0362 37.1694 62.226C34.55 59.4157 33.2401 55.4444 33.2401 50.3123V16.5875C33.2401 11.4555 34.55 7.48424 37.1694 4.67385C39.7888 1.86347 43.5659 0.458252 48.5004 0.458252C53.4349 0.458252 57.2121 1.86347 59.8315 4.67385C62.4509 7.48424 63.7608 11.4555 63.7608 16.5875V50.3123C63.7608 55.4444 62.4509 59.4157 59.8315 62.226C57.2121 65.0362 53.4349 66.4416 48.5004 66.4416ZM48.5004 57.2772C51.9728 57.2772 53.709 55.1694 53.709 50.9538V15.946C53.709 11.7304 51.9728 9.6226 48.5004 9.6226C45.028 9.6226 43.2918 11.7304 43.2918 15.946V50.9538C43.2918 55.1694 45.028 57.2772 48.5004 57.2772ZM72.5775 10.539H62.0689V1.37469H93.1378V10.539H82.6292V65.5251H72.5775V10.539ZM92.5215 1.37469H119.935V10.539H102.573V27.4931H116.371V36.6574H102.573V56.3608H119.935V65.5251H92.5215V1.37469Z" fill="white" />
    <path d="M0.456894 1.37465V0.916435H0V1.37465H0.456894ZM13.0672 1.37465L13.51 1.26129L13.4222 0.916435H13.0672V1.37465ZM22.8448 39.7733L22.4025 39.8865L22.4903 40.2315H22.8448V39.7733ZM23.0276 39.7733V40.2315H23.4845V39.7733H23.0276ZM23.0276 1.37465V0.916435H22.5707V1.37465H23.0276ZM31.9828 1.37465H32.4397V0.916435H31.9828V1.37465ZM31.9828 65.5251V65.9833H32.4397V65.5251H31.9828ZM21.6569 65.5251L21.2146 65.6397L21.3033 65.9833H21.6569V65.5251ZM9.59483 18.6953L10.0376 18.5807L9.94891 18.2371H9.59483V18.6953ZM9.41206 18.6953V18.2371H8.95516V18.6953H9.41206ZM9.41206 65.5251V65.9833H9.86896V65.5251H9.41206ZM0.456894 65.5251H0V65.9833H0.456894V65.5251ZM0.456894 1.83287H13.0672V0.916435H0.456894V1.83287ZM12.625 1.48802L22.4025 39.8865L23.2876 39.6601L13.51 1.26129L12.625 1.48802ZM22.8448 40.2315H23.0276V39.3151H22.8448V40.2315ZM23.4845 39.7733V1.37465H22.5707V39.7733H23.4845ZM23.0276 1.83287H31.9828V0.916435H23.0276V1.83287ZM31.5259 1.37465V65.5251H32.4397V1.37465H31.5259ZM31.9828 65.0669H21.6569V65.9833H31.9828V65.0669ZM22.0996 65.4106L10.0376 18.5807L9.15255 18.8099L21.2146 65.6397L22.0996 65.4106ZM9.59483 18.2371H9.41206V19.1535H9.59483V18.2371ZM8.95516 18.6953V65.5251H9.86896V18.6953H8.95516ZM9.41206 65.0669H0.456894V65.9833H9.41206V65.0669ZM0.913788 65.5251V1.37465H0V65.5251H0.913788ZM48.5005 65.9833C43.6542 65.9833 40.0132 64.6059 37.5034 61.913L36.8355 62.5389C39.5645 65.4669 43.4778 66.8998 48.5005 66.8998V65.9833ZM37.5034 61.913C34.9864 59.2127 33.697 55.3678 33.697 50.3123H32.7832C32.7832 55.5209 34.1137 59.6182 36.8355 62.5389L37.5034 61.913ZM33.697 50.3123V16.5875H32.7832V50.3123H33.697ZM33.697 16.5875C33.697 11.532 34.9864 7.68715 37.5034 4.98674L36.8355 4.3609C34.1137 7.28131 32.7832 11.3789 32.7832 16.5875H33.697ZM37.5034 4.98674C40.0132 2.29379 43.6542 0.916435 48.5005 0.916435V0C43.4778 0 39.5645 1.43303 36.8355 4.3609L37.5034 4.98674ZM48.5005 0.916435C53.3468 0.916435 56.9878 2.29379 59.4975 4.98674L60.1655 4.3609C57.4365 1.43303 53.5231 0 48.5005 0V0.916435ZM59.4975 4.98674C62.0146 7.68715 63.3039 11.532 63.3039 16.5875H64.2177C64.2177 11.3789 62.8872 7.28131 60.1655 4.3609L59.4975 4.98674ZM63.3039 16.5875V50.3123H64.2177V16.5875H63.3039ZM63.3039 50.3123C63.3039 55.3678 62.0146 59.2127 59.4975 61.913L60.1655 62.5389C62.8872 59.6182 64.2177 55.5209 64.2177 50.3123H63.3039ZM59.4975 61.913C56.9878 64.6059 53.3468 65.9833 48.5005 65.9833V66.8998C53.5231 66.8998 57.4365 65.4669 60.1655 62.5389L59.4975 61.913ZM48.5005 57.7354C50.3326 57.7354 51.7815 57.175 52.7592 55.9882C53.7233 54.8179 54.166 53.1134 54.166 50.9538H53.2522C53.2522 53.0098 52.8268 54.467 52.0547 55.4045C51.2962 56.3255 50.1407 56.819 48.5005 56.819V57.7354ZM54.166 50.9538V15.946H53.2522V50.9538H54.166ZM54.166 15.946C54.166 13.7866 53.7233 12.0818 52.7592 10.9116C51.7815 9.72462 50.3326 9.16435 48.5005 9.16435V10.0808C50.1407 10.0808 51.2962 10.5744 52.0547 11.4953C52.8268 12.4328 53.2522 13.8898 53.2522 15.946H54.166ZM48.5005 9.16435C46.6683 9.16435 45.2195 9.72462 44.2417 10.9116C43.2777 12.0818 42.835 13.7866 42.835 15.946H43.7488C43.7488 13.8898 44.1741 12.4328 44.9463 11.4953C45.7047 10.5744 46.8602 10.0808 48.5005 10.0808V9.16435ZM42.835 15.946V50.9538H43.7488V15.946H42.835ZM42.835 50.9538C42.835 53.1134 43.2777 54.8179 44.2417 55.9882C45.2195 57.175 46.6683 57.7354 48.5005 57.7354V56.819C46.8602 56.819 45.7047 56.3255 44.9463 55.4045C44.1741 54.467 43.7488 53.0098 43.7488 50.9538H42.835ZM72.5776 10.539H73.0344V10.0808H72.5776V10.539ZM62.0689 10.539H61.612V10.9972H62.0689V10.539ZM62.0689 1.37465V0.916435H61.612V1.37465H62.0689ZM93.1379 1.37465H93.5948V0.916435H93.1379V1.37465ZM93.1379 10.539V10.9972H93.5948V10.539H93.1379ZM82.6293 10.539V10.0808H82.1724V10.539H82.6293ZM82.6293 65.5251V65.9833H83.0862V65.5251H82.6293ZM72.5776 65.5251H72.1207V65.9833H72.5776V65.5251ZM72.5776 10.0808H62.0689V10.9972H72.5776V10.0808ZM62.5258 10.539V1.37465H61.612V10.539H62.5258ZM62.0689 1.83287H93.1379V0.916435H62.0689V1.83287ZM92.681 1.37465V10.539H93.5948V1.37465H92.681ZM93.1379 10.0808H82.6293V10.9972H93.1379V10.0808ZM82.1724 10.539V65.5251H83.0862V10.539H82.1724ZM82.6293 65.0669H72.5776V65.9833H82.6293V65.0669ZM73.0344 65.5251V10.539H72.1207V65.5251H73.0344ZM92.5216 1.37465V0.916435H92.0646V1.37465H92.5216ZM119.935 1.37465H120.392V0.916435H119.935V1.37465ZM119.935 10.539V10.9972H120.392V10.539H119.935ZM102.573 10.539V10.0808H102.116V10.539H102.573ZM102.573 27.4931H102.116V27.9513H102.573V27.4931ZM116.372 27.4931H116.828V27.0348H116.372V27.4931ZM116.372 36.6574V37.1156H116.828V36.6574H116.372ZM102.573 36.6574V36.1992H102.116V36.6574H102.573ZM102.573 56.3608H102.116V56.819H102.573V56.3608ZM119.935 56.3608H120.392V55.9025H119.935V56.3608ZM119.935 65.5251V65.9833H120.392V65.5251H119.935ZM92.5216 65.5251H92.0646V65.9833H92.5216V65.5251ZM92.5216 1.83287H119.935V0.916435H92.5216V1.83287ZM119.478 1.37465V10.539H120.392V1.37465H119.478ZM119.935 10.0808H102.573V10.9972H119.935V10.0808ZM102.116 10.539V27.4931H103.03V10.539H102.116ZM102.573 27.9513H116.372V27.0348H102.573V27.9513ZM115.915 27.4931V36.6574H116.828V27.4931H115.915ZM116.372 36.1992H102.573V37.1156H116.372V36.1992ZM102.116 36.6574V56.3608H103.03V36.6574H102.116ZM102.573 56.819H119.935V55.9025H102.573V56.819ZM119.478 56.3608V65.5251H120.392V56.3608H119.478ZM119.935 65.0669H92.5216V65.9833H119.935V65.0669ZM92.9784 65.5251V1.37465H92.0646V65.5251H92.9784Z" fill="black" />
</svg>
    