<svg width="122" height="68" viewBox="0 0 122 68" fill="none" xmlns="http://www.w3.org/2000/svg">
    <path d="M1.11047 2.32867H13.7208L23.4984 40.7273H23.6812V2.32867H32.6363V66.4791H22.3105L10.2484 19.6493H10.0656V66.4791H1.11047V2.32867ZM49.1541 67.3956C44.2196 67.3956 40.4424 65.9902 37.823 63.18C35.2036 60.3697 33.8937 56.3983 33.8937 51.2663V17.5415C33.8937 12.4095 35.2036 8.43822 37.823 5.62783C40.4424 2.81745 44.2196 1.41223 49.1541 1.41223C54.0885 1.41223 57.8657 2.81745 60.4851 5.62783C63.1045 8.43822 64.4144 12.4095 64.4144 17.5415V51.2663C64.4144 56.3983 63.1045 60.3697 60.4851 63.18C57.8657 65.9902 54.0885 67.3956 49.1541 67.3956ZM49.1541 58.2312C52.6265 58.2312 54.3627 56.1234 54.3627 51.9078V16.9C54.3627 12.6844 52.6265 10.5766 49.1541 10.5766C45.6816 10.5766 43.9454 12.6844 43.9454 16.9V51.9078C43.9454 56.1234 45.6816 58.2312 49.1541 58.2312ZM73.2311 11.493H62.7225V2.32867H93.7915V11.493H83.2829V66.4791H73.2311V11.493ZM93.1751 2.32867H120.589V11.493H103.227V28.4471H117.025V37.6114H103.227V57.3148H120.589V66.4791H93.1751V2.32867Z" fill="white" />
    <path d="M1.11052 2.32863V1.87041H0.653625V2.32863H1.11052ZM13.7209 2.32863L14.1636 2.21527L14.0759 1.87041H13.7209V2.32863ZM23.4985 40.7273L23.0562 40.8404L23.1439 41.1855H23.4985V40.7273ZM23.6812 40.7273V41.1855H24.1381V40.7273H23.6812ZM23.6812 2.32863V1.87041H23.2243V2.32863H23.6812ZM32.6364 2.32863H33.0933V1.87041H32.6364V2.32863ZM32.6364 66.4791V66.9373H33.0933V66.4791H32.6364ZM22.3105 66.4791L21.8682 66.5937L21.9569 66.9373H22.3105V66.4791ZM10.2485 19.6493L10.6912 19.5347L10.6025 19.191H10.2485V19.6493ZM10.0657 19.6493V19.191H9.60879V19.6493H10.0657ZM10.0657 66.4791V66.9373H10.5226V66.4791H10.0657ZM1.11052 66.4791H0.653625V66.9373H1.11052V66.4791ZM1.11052 2.78685H13.7209V1.87041H1.11052V2.78685ZM13.2786 2.44199L23.0562 40.8404L23.9412 40.6141L14.1636 2.21527L13.2786 2.44199ZM23.4985 41.1855H23.6812V40.2691H23.4985V41.1855ZM24.1381 40.7273V2.32863H23.2243V40.7273H24.1381ZM23.6812 2.78685H32.6364V1.87041H23.6812V2.78685ZM32.1795 2.32863V66.4791H33.0933V2.32863H32.1795ZM32.6364 66.0209H22.3105V66.9373H32.6364V66.0209ZM22.7532 66.3645L10.6912 19.5347L9.80618 19.7639L21.8682 66.5937L22.7532 66.3645ZM10.2485 19.191H10.0657V20.1075H10.2485V19.191ZM9.60879 19.6493V66.4791H10.5226V19.6493H9.60879ZM10.0657 66.0209H1.11052V66.9373H10.0657V66.0209ZM1.56741 66.4791V2.32863H0.653625V66.4791H1.56741ZM49.1541 66.9373C44.3078 66.9373 40.6668 65.5599 38.1571 62.867L37.4891 63.4929C40.2181 66.4209 44.1314 67.8538 49.1541 67.8538V66.9373ZM38.1571 62.867C35.64 60.1667 34.3507 56.3218 34.3507 51.2663H33.4369C33.4369 56.4748 34.7673 60.5722 37.4891 63.4929L38.1571 62.867ZM34.3507 51.2663V17.5415H33.4369V51.2663H34.3507ZM34.3507 17.5415C34.3507 12.4859 35.64 8.64113 38.1571 5.94072L37.4891 5.31488C34.7673 8.23529 33.4369 12.3329 33.4369 17.5415H34.3507ZM38.1571 5.94072C40.6668 3.24777 44.3078 1.87041 49.1541 1.87041V0.953979C44.1314 0.953979 40.2181 2.38701 37.4891 5.31488L38.1571 5.94072ZM49.1541 1.87041C54.0004 1.87041 57.6414 3.24777 60.1511 5.94072L60.8191 5.31488C58.0901 2.38701 54.1768 0.953979 49.1541 0.953979V1.87041ZM60.1511 5.94072C62.6682 8.64113 63.9576 12.4859 63.9576 17.5415H64.8713C64.8713 12.3329 63.5409 8.23529 60.8191 5.31488L60.1511 5.94072ZM63.9576 17.5415V51.2663H64.8713V17.5415H63.9576ZM63.9576 51.2663C63.9576 56.3218 62.6682 60.1667 60.1511 62.867L60.8191 63.4929C63.5409 60.5722 64.8713 56.4748 64.8713 51.2663H63.9576ZM60.1511 62.867C57.6414 65.5599 54.0004 66.9373 49.1541 66.9373V67.8538C54.1768 67.8538 58.0901 66.4209 60.8191 63.4929L60.1511 62.867ZM49.1541 58.6894C50.9863 58.6894 52.4351 58.129 53.4128 56.9422C54.3769 55.7719 54.8196 54.0674 54.8196 51.9078H53.9058C53.9058 53.9638 53.4805 55.4209 52.7083 56.3584C51.9499 57.2795 50.7944 57.773 49.1541 57.773V58.6894ZM54.8196 51.9078V16.9H53.9058V51.9078H54.8196ZM54.8196 16.9C54.8196 14.7406 54.3769 13.0358 53.4128 11.8656C52.4351 10.6786 50.9863 10.1183 49.1541 10.1183V11.0348C50.7944 11.0348 51.9499 11.5284 52.7083 12.4492C53.4805 13.3868 53.9058 14.8437 53.9058 16.9H54.8196ZM49.1541 10.1183C47.322 10.1183 45.8731 10.6786 44.8954 11.8656C43.9313 13.0358 43.4886 14.7406 43.4886 16.9H44.4024C44.4024 14.8437 44.8278 13.3868 45.5999 12.4492C46.3584 11.5284 47.5138 11.0348 49.1541 11.0348V10.1183ZM43.4886 16.9V51.9078H44.4024V16.9H43.4886ZM43.4886 51.9078C43.4886 54.0674 43.9313 55.7719 44.8954 56.9422C45.8731 58.129 47.322 58.6894 49.1541 58.6894V57.773C47.5138 57.773 46.3584 57.2795 45.5999 56.3584C44.8278 55.4209 44.4024 53.9638 44.4024 51.9078H43.4886ZM73.2312 11.493H73.6881V11.0348H73.2312V11.493ZM62.7226 11.493H62.2657V11.9512H62.7226V11.493ZM62.7226 2.32863V1.87041H62.2657V2.32863H62.7226ZM93.7915 2.32863H94.2484V1.87041H93.7915V2.32863ZM93.7915 11.493V11.9512H94.2484V11.493H93.7915ZM83.2829 11.493V11.0348H82.826V11.493H83.2829ZM83.2829 66.4791V66.9373H83.7398V66.4791H83.2829ZM73.2312 66.4791H72.7743V66.9373H73.2312V66.4791ZM73.2312 11.0348H62.7226V11.9512H73.2312V11.0348ZM63.1795 11.493V2.32863H62.2657V11.493H63.1795ZM62.7226 2.78685H93.7915V1.87041H62.7226V2.78685ZM93.3346 2.32863V11.493H94.2484V2.32863H93.3346ZM93.7915 11.0348H83.2829V11.9512H93.7915V11.0348ZM82.826 11.493V66.4791H83.7398V11.493H82.826ZM83.2829 66.0209H73.2312V66.9373H83.2829V66.0209ZM73.6881 66.4791V11.493H72.7743V66.4791H73.6881ZM93.1752 2.32863V1.87041H92.7183V2.32863H93.1752ZM120.589 2.32863H121.046V1.87041H120.589V2.32863ZM120.589 11.493V11.9512H121.046V11.493H120.589ZM103.227 11.493V11.0348H102.77V11.493H103.227ZM103.227 28.447H102.77V28.9053H103.227V28.447ZM117.025 28.447H117.482V27.9888H117.025V28.447ZM117.025 37.6114V38.0696H117.482V37.6114H117.025ZM103.227 37.6114V37.1532H102.77V37.6114H103.227ZM103.227 57.3147H102.77V57.773H103.227V57.3147ZM120.589 57.3147H121.046V56.8565H120.589V57.3147ZM120.589 66.4791V66.9373H121.046V66.4791H120.589ZM93.1752 66.4791H92.7183V66.9373H93.1752V66.4791ZM93.1752 2.78685H120.589V1.87041H93.1752V2.78685ZM120.132 2.32863V11.493H121.046V2.32863H120.132ZM120.589 11.0348H103.227V11.9512H120.589V11.0348ZM102.77 11.493V28.447H103.684V11.493H102.77ZM103.227 28.9053H117.025V27.9888H103.227V28.9053ZM116.568 28.447V37.6114H117.482V28.447H116.568ZM117.025 37.1532H103.227V38.0696H117.025V37.1532ZM102.77 37.6114V57.3147H103.684V37.6114H102.77ZM103.227 57.773H120.589V56.8565H103.227V57.773ZM120.132 57.3147V66.4791H121.046V57.3147H120.132ZM120.589 66.0209H93.1752V66.9373H120.589V66.0209ZM93.6321 66.4791V2.32863H92.7183V66.4791H93.6321Z" fill="#FFC330" />
</svg>
    