<svg width="29" height="29" viewBox="0 0 29 29" fill="none" xmlns="http://www.w3.org/2000/svg">
    <path d="M14.5 15.2732C14.0684 15.2749 13.6494 15.4183 13.3072 15.6813C12.9651 15.9443 12.7188 16.3125 12.6063 16.7291C12.4937 17.1457 12.5211 17.5878 12.6842 17.9873C12.8473 18.3868 13.1372 18.7217 13.5092 18.9405V21.7499H15.515V18.9405C15.8093 18.7664 16.0536 18.5191 16.224 18.2227C16.3945 17.9263 16.4853 17.5908 16.4877 17.2489V17.2489C16.4877 16.9884 16.4362 16.7305 16.3362 16.49C16.2361 16.2495 16.0895 16.0312 15.9048 15.8476C15.7201 15.664 15.5008 15.5187 15.2597 15.4201C15.0187 15.3216 14.7605 15.2716 14.5 15.2732V15.2732Z" stroke="black" stroke-width="1.04167" stroke-linecap="round" stroke-linejoin="round" />
    <path d="M21.9252 10.7361H7.06875C5.62729 10.7361 4.45875 11.9046 4.45875 13.3461V23.6713C4.45875 25.1128 5.62729 26.2813 7.06875 26.2813H21.9252C23.3667 26.2813 24.5352 25.1128 24.5352 23.6713V13.3461C24.5352 11.9046 23.3667 10.7361 21.9252 10.7361Z" stroke="black" stroke-width="1.04167" stroke-linecap="round" stroke-linejoin="round" />
    <path d="M8.06562 10.736V9.15917C8.06562 7.45106 8.74417 5.81292 9.95198 4.6051C11.1598 3.39729 12.7979 2.71875 14.506 2.71875C16.2141 2.71875 17.8523 3.39729 19.0601 4.6051C20.2679 5.81292 20.9465 7.45106 20.9465 9.15917V10.736" stroke="black" stroke-width="1.04167" stroke-linecap="round" stroke-linejoin="round" />
</svg>
    