<svg width="24" height="29" viewBox="0 0 24 29" fill="none" xmlns="http://www.w3.org/2000/svg">
    <mask id="path-1-inside-1_0_186" fill="white">
        <path d="M21.1133 20.9453V12.603C21.1121 10.3824 20.4207 8.22708 19.1509 6.48484C17.881 4.7426 16.1068 3.51514 14.1144 3.00057V2.26742C14.1044 1.66235 13.8757 1.08572 13.4775 0.661662C13.0793 0.2376 12.5434 0 11.9852 0C11.4271 0 10.8912 0.2376 10.493 0.661662C10.0948 1.08572 9.86609 1.66235 9.85606 2.26742V3.00876C7.87045 3.52917 6.10379 4.75807 4.83985 6.49807C3.5759 8.23806 2.88804 10.3882 2.88673 12.603V20.9453L0 24.0752V25.5206H24V24.0752L21.1133 20.9453ZM8.79199 25.5206C8.78983 25.9752 8.87026 26.4258 9.02871 26.8466C9.18715 27.2675 9.42049 27.6504 9.71542 27.9735C10.0103 28.2966 10.3611 28.5535 10.7476 28.7296C11.1341 28.9058 11.5488 28.9976 11.9681 29C12.8148 29.0047 13.6286 28.6445 14.2304 27.9988C14.8322 27.353 15.1727 26.4744 15.1771 25.5564V25.5206" />
    </mask>
    <path d="M21.1133 20.9453V12.603C21.1121 10.3824 20.4207 8.22708 19.1509 6.48484C17.881 4.7426 16.1068 3.51514 14.1144 3.00057V2.26742C14.1044 1.66235 13.8757 1.08572 13.4775 0.661662C13.0793 0.2376 12.5434 0 11.9852 0C11.4271 0 10.8912 0.2376 10.493 0.661662C10.0948 1.08572 9.86609 1.66235 9.85606 2.26742V3.00876C7.87045 3.52917 6.10379 4.75807 4.83985 6.49807C3.5759 8.23806 2.88804 10.3882 2.88673 12.603V20.9453L0 24.0752V25.5206H24V24.0752L21.1133 20.9453ZM8.79199 25.5206C8.78983 25.9752 8.87026 26.4258 9.02871 26.8466C9.18715 27.2675 9.42049 27.6504 9.71542 27.9735C10.0103 28.2966 10.3611 28.5535 10.7476 28.7296C11.1341 28.9058 11.5488 28.9976 11.9681 29C12.8148 29.0047 13.6286 28.6445 14.2304 27.9988C14.8322 27.353 15.1727 26.4744 15.1771 25.5564V25.5206" fill="#D9D9D9" />
    <path d="M21.1133 20.9453H20.1133C20.1133 21.1966 20.2079 21.4386 20.3782 21.6233L21.1133 20.9453ZM21.1133 12.603H22.1133V12.6025L21.1133 12.603ZM14.1144 3.00057H13.1144C13.1144 3.45655 13.4229 3.85478 13.8644 3.9688L14.1144 3.00057ZM14.1144 2.26742H15.1144C15.1144 2.2619 15.1144 2.25638 15.1143 2.25086L14.1144 2.26742ZM9.85606 2.26742L8.8562 2.25086C8.85611 2.25638 8.85606 2.2619 8.85606 2.26742H9.85606ZM9.85606 3.00876L10.1096 3.97609C10.5494 3.86082 10.8561 3.4634 10.8561 3.00876H9.85606ZM2.88673 12.603L1.88673 12.6024V12.603H2.88673ZM2.88673 20.9453L3.62181 21.6233C3.79215 21.4386 3.88673 21.1966 3.88673 20.9453H2.88673ZM0 24.0752L-0.735081 23.3972C-0.905422 23.5819 -1 23.8239 -1 24.0752H0ZM0 25.5206H-1C-1 26.0729 -0.552285 26.5206 0 26.5206L0 25.5206ZM24 25.5206V26.5206C24.5523 26.5206 25 26.0729 25 25.5206H24ZM24 24.0752H25C25 23.8239 24.9054 23.5819 24.7351 23.3972L24 24.0752ZM9.79198 25.5254C9.79461 24.9731 9.34903 24.5233 8.79675 24.5207C8.24447 24.518 7.79463 24.9636 7.792 25.5159L9.79198 25.5254ZM11.9681 29L11.9737 28L11.9681 29ZM15.1771 25.5564L16.1771 25.5611V25.5564H15.1771ZM16.1771 25.5206C16.1771 24.9684 15.7294 24.5206 15.1771 24.5206C14.6248 24.5206 14.1771 24.9684 14.1771 25.5206H16.1771ZM22.1133 20.9453V12.603H20.1133V20.9453H22.1133ZM22.1133 12.6025C22.112 10.1772 21.3574 7.8144 19.959 5.89583L18.3428 7.07385C19.4841 8.63975 20.1122 10.5877 20.1133 12.6036L22.1133 12.6025ZM19.959 5.89583C18.5597 3.97602 16.5925 2.60777 14.3645 2.03234L13.8644 3.9688C15.621 4.4225 17.2023 5.50918 18.3428 7.07385L19.959 5.89583ZM15.1144 3.00057V2.26742H13.1144V3.00057H15.1144ZM15.1143 2.25086C15.1003 1.40821 14.7822 0.590304 14.2064 -0.0228723L12.7485 1.3462C12.9691 1.58115 13.1085 1.91648 13.1146 2.28398L15.1143 2.25086ZM14.2064 -0.0228723C13.6282 -0.638655 12.8324 -1 11.9852 -1V1C12.2544 1 12.5303 1.11386 12.7485 1.3462L14.2064 -0.0228723ZM11.9852 -1C11.1381 -1 10.3423 -0.638656 9.76404 -0.0228723L11.222 1.3462C11.4402 1.11386 11.7161 1 11.9852 1V-1ZM9.76404 -0.0228723C9.18825 0.590304 8.87016 1.40821 8.8562 2.25086L10.8559 2.28398C10.862 1.91648 11.0014 1.58115 11.222 1.3462L9.76404 -0.0228723ZM8.85606 2.26742V3.00876H10.8561V2.26742H8.85606ZM9.60254 2.04143C7.38219 2.62337 5.42349 3.9931 4.03078 5.91035L5.64892 7.08578C6.7841 5.52305 8.35872 4.43498 10.1096 3.97609L9.60254 2.04143ZM4.03078 5.91035C2.63895 7.8264 1.88816 10.1834 1.88673 12.6024L3.88673 12.6036C3.88791 10.593 4.51285 8.64973 5.64892 7.08578L4.03078 5.91035ZM1.88673 12.603V20.9453H3.88673V12.603H1.88673ZM2.15165 20.2673L-0.735081 23.3972L0.735081 24.7532L3.62181 21.6233L2.15165 20.2673ZM-1 24.0752V25.5206H1V24.0752H-1ZM0 26.5206H24V24.5206H0V26.5206ZM25 25.5206V24.0752H23V25.5206H25ZM24.7351 23.3972L21.8484 20.2673L20.3782 21.6233L23.2649 24.7532L24.7351 23.3972ZM7.792 25.5159C7.78926 26.091 7.89095 26.6627 8.09283 27.199L9.96458 26.4943C9.84958 26.1888 9.79039 25.8594 9.79198 25.5254L7.792 25.5159ZM8.09283 27.199C8.29474 27.7353 8.59391 28.2282 8.97686 28.6477L10.454 27.2993C10.2471 27.0726 10.0796 26.7997 9.96458 26.4943L8.09283 27.199ZM8.97686 28.6477C9.35996 29.0674 9.81995 29.4059 10.3329 29.6396L11.1622 27.8197C10.9022 27.7012 10.6607 27.5258 10.454 27.2993L8.97686 28.6477ZM10.3329 29.6396C10.8462 29.8735 11.4002 29.9968 11.9625 29.9999L11.9737 28C11.6975 27.9984 11.422 27.938 11.1622 27.8197L10.3329 29.6396ZM11.9625 29.9999C13.1017 30.0063 14.1788 29.5209 14.962 28.6805L13.4988 27.317C13.0783 27.7682 12.5279 28.0031 11.9737 28L11.9625 29.9999ZM14.962 28.6805C15.7426 27.8429 16.1716 26.7195 16.1771 25.5611L14.1771 25.5516C14.1739 26.2293 13.9218 26.8631 13.4988 27.317L14.962 28.6805ZM16.1771 25.5564V25.5206H14.1771V25.5564H16.1771Z" fill="black" mask="url(#path-1-inside-1_0_186)" />
</svg>
    