<svg width="30" height="30" viewBox="0 0 30 30" fill="none" xmlns="http://www.w3.org/2000/svg">
    <path d="M14.3643 9.84375C13.3445 9.84375 12.3476 10.1462 11.4997 10.7127C10.6517 11.2793 9.99082 12.0846 9.60056 13.0268C9.2103 13.969 9.10818 15.0057 9.30714 16.0059C9.50609 17.0061 9.99718 17.9249 10.7183 18.646C11.4394 19.3671 12.3582 19.8582 13.3584 20.0572C14.3586 20.2561 15.3953 20.154 16.3375 19.7638C17.2797 19.3735 18.085 18.7126 18.6516 17.8647C19.2182 17.0167 19.5206 16.0198 19.5206 15C19.519 13.633 18.9753 12.3223 18.0086 11.3557C17.042 10.389 15.7314 9.8453 14.3643 9.84375V9.84375ZM14.3643 18.2812C13.7153 18.2812 13.0809 18.0888 12.5413 17.7283C12.0017 17.3677 11.5812 16.8552 11.3328 16.2557C11.0845 15.6561 11.0195 14.9964 11.1461 14.3599C11.2727 13.7234 11.5852 13.1387 12.0441 12.6798C12.503 12.2209 13.0877 11.9084 13.7242 11.7818C14.3607 11.6552 15.0204 11.7202 15.62 11.9685C16.2196 12.2169 16.732 12.6374 17.0926 13.177C17.4531 13.7166 17.6456 14.351 17.6456 15C17.6446 15.8699 17.2986 16.704 16.6834 17.3191C16.0683 17.9343 15.2343 18.2803 14.3643 18.2812V18.2812Z" fill="black" />
    <path d="M27.2285 18.8859L25.367 17.3535C25.697 15.8018 25.697 14.1982 25.367 12.6465L27.2285 11.1141C27.4432 10.9382 27.5883 10.6916 27.6377 10.4185C27.6872 10.1454 27.6378 9.86358 27.4984 9.62356L25.5875 6.31401C25.4494 6.0732 25.23 5.88947 24.9687 5.79573C24.7074 5.702 24.4212 5.70439 24.1615 5.80248L21.9021 6.64899C20.7251 5.58556 19.3365 4.783 17.8275 4.29399L17.4311 1.91678C17.3862 1.64282 17.2452 1.39379 17.0334 1.21434C16.8215 1.03489 16.5527 0.936749 16.2751 0.937504H12.4535C12.1759 0.936759 11.9071 1.0349 11.6953 1.21433C11.4835 1.39377 11.3425 1.64277 11.2976 1.91672L10.9014 4.29399C9.39234 4.78299 8.00377 5.58554 6.82676 6.64899L4.56709 5.80237C4.3074 5.70434 4.02129 5.70199 3.76002 5.79573C3.49875 5.88947 3.2794 6.07318 3.14127 6.31395L1.23047 9.62373C1.09111 9.86377 1.04176 10.1456 1.09125 10.4187C1.14075 10.6918 1.28585 10.9384 1.50059 11.1142L3.36193 12.6465C3.03193 14.1982 3.03193 15.8018 3.36193 17.3535L1.50041 18.8859C1.28571 19.0618 1.14065 19.3084 1.09118 19.5815C1.04172 19.8546 1.0911 20.1364 1.23047 20.3764L3.14133 23.686C3.27947 23.9268 3.49886 24.1105 3.76017 24.2043C4.02147 24.298 4.30762 24.2956 4.56732 24.1975L6.82682 23.351C8.00383 24.4145 9.3924 25.217 10.9014 25.706L11.2976 28.0832C11.3425 28.3572 11.4835 28.6062 11.6953 28.7856C11.9071 28.9651 12.1759 29.0632 12.4535 29.0625H16.2751C16.5527 29.0633 16.8215 28.9651 17.0333 28.7857C17.2452 28.6062 17.3862 28.3572 17.4311 28.0833L17.8273 25.706C19.3363 25.217 20.7249 24.4144 21.9019 23.351L24.1615 24.1976C24.4212 24.2957 24.7073 24.298 24.9686 24.2043C25.2299 24.1105 25.4492 23.9268 25.5874 23.6861L27.498 20.3763C27.6374 20.1363 27.6869 19.8546 27.6375 19.5815C27.5881 19.3084 27.4431 19.0618 27.2285 18.8859V18.8859ZM24.2616 22.2328L21.4427 21.1767L21.0158 21.6064C19.8414 22.7901 18.3724 23.6391 16.7604 24.0657L16.1745 24.2202L15.6797 27.1875H13.0494L12.5548 24.2202L11.9688 24.0657C10.3568 23.6391 8.88788 22.7901 7.71346 21.6064L7.2866 21.1767L4.46725 22.2328L3.15234 19.9548L5.47436 18.0432L5.31615 17.4589C4.88108 15.8485 4.88108 14.1515 5.31615 12.5411L5.47436 11.9568L3.15234 10.0453L4.46754 7.76725L7.28643 8.82334L7.71328 8.39362C8.8877 7.20988 10.3567 6.3609 11.9687 5.93426L12.5546 5.77981L13.0492 2.8125H15.6797L16.1743 5.77981L16.7603 5.93426C18.3723 6.3609 19.8412 7.20988 21.0156 8.39362L21.4425 8.82334L24.2614 7.76725L25.5766 10.0452L23.2546 11.9568L23.4128 12.5411C23.8479 14.1515 23.8479 15.8485 23.4128 17.4589L23.2546 18.0432L25.5766 19.9547L24.2616 22.2328Z" fill="black" />
</svg>
    