<svg width="42" height="42" viewBox="0 0 42 42" fill="none" xmlns="http://www.w3.org/2000/svg">
    <rect x="2" y="2" width="38" height="38" rx="6" fill="#D9D9D9" stroke="black" stroke-width="4" />
    <path d="M30.3536 18.0426L24.358 17.1301L21.6778 11.4402C21.6046 11.2844 21.4841 11.1583 21.3354 11.0816C20.9623 10.8887 20.5089 11.0495 20.3223 11.4402L17.6421 17.1301L11.6465 18.0426C11.4812 18.0673 11.3301 18.1489 11.2144 18.2725C11.0745 18.4231 10.9974 18.6257 11.0001 18.8357C11.0027 19.0457 11.0849 19.2461 11.2285 19.3927L15.5665 23.8215L14.5416 30.0753C14.5176 30.2207 14.5329 30.3704 14.586 30.5071C14.639 30.6439 14.7276 30.7624 14.8417 30.8492C14.9557 30.9359 15.0907 30.9875 15.2314 30.998C15.372 31.0085 15.5126 30.9775 15.6373 30.9086L21 27.9561L26.3628 30.9086C26.5092 30.9902 26.6792 31.0174 26.8422 30.9877C27.2531 30.9135 27.5293 30.5055 27.4585 30.0753L26.4336 23.8215L30.7715 19.3927C30.8896 19.2716 30.9675 19.1133 30.9912 18.9402C31.0549 18.5075 30.7668 18.1069 30.3536 18.0426V18.0426Z" fill="black" />
</svg>
    