<svg width="42" height="42" viewBox="0 0 42 42" fill="none" xmlns="http://www.w3.org/2000/svg">
    <rect x="2" y="2" width="38" height="38" rx="6" fill="#FFC330" stroke="black" stroke-width="4" />
    <path d="M27.5152 19.2819L23.0185 18.5976L21.0083 14.3301C20.9534 14.2133 20.8631 14.1187 20.7515 14.0612C20.4717 13.9165 20.1317 14.0371 19.9917 14.3301L17.9816 18.5976L13.4849 19.2819C13.3609 19.3005 13.2476 19.3617 13.1608 19.4544C13.0559 19.5673 12.9981 19.7192 13 19.8768C13.002 20.0343 13.0637 20.1846 13.1714 20.2945L16.4248 23.6161L15.6562 28.3064C15.6382 28.4155 15.6497 28.5278 15.6895 28.6304C15.7293 28.733 15.7957 28.8218 15.8812 28.8869C15.9668 28.952 16.0681 28.9906 16.1735 28.9985C16.279 29.0064 16.3845 28.9831 16.478 28.9314L20.5 26.717L24.5221 28.9314C24.6319 28.9926 24.7594 29.013 24.8816 28.9908C25.1898 28.9352 25.397 28.6291 25.3439 28.3064L24.5752 23.6161L27.8287 20.2945C27.9172 20.2037 27.9757 20.085 27.9934 19.9551C28.0412 19.6306 27.8251 19.3301 27.5152 19.2819Z" fill="black" />
</svg>
    