<svg width="42" height="42" viewBox="0 0 42 42" fill="none" xmlns="http://www.w3.org/2000/svg">
    <rect x="2" y="2" width="38" height="38" rx="6" fill="#D9D9D9" stroke="black" stroke-width="4" />
    <path d="M28.56 19.196L23.6157 18.4775L21.4054 13.9967C21.3451 13.874 21.2458 13.7747 21.1231 13.7143C20.8154 13.5624 20.4415 13.689 20.2877 13.9967L18.0774 18.4775L13.1332 19.196C12.9968 19.2155 12.8722 19.2798 12.7768 19.3771C12.6614 19.4957 12.5979 19.6552 12.6001 19.8206C12.6023 19.9861 12.67 20.1438 12.7885 20.2593L16.3657 23.747L15.5206 28.6718C15.5008 28.7864 15.5135 28.9042 15.5572 29.0119C15.6009 29.1196 15.674 29.2129 15.768 29.2813C15.8621 29.3496 15.9734 29.3902 16.0894 29.3984C16.2054 29.4067 16.3213 29.3823 16.4242 29.328L20.8466 27.0029L25.269 29.328C25.3897 29.3923 25.5299 29.4137 25.6643 29.3904C26.0031 29.3319 26.2309 29.0106 26.1725 28.6718L25.3274 23.747L28.9046 20.2593C29.002 20.1639 29.0663 20.0392 29.0857 19.9029C29.1383 19.5621 28.9007 19.2467 28.56 19.196V19.196Z" fill="black" />
</svg>
    