<svg width="21" height="29" viewBox="0 0 21 29" fill="none" xmlns="http://www.w3.org/2000/svg">
    <path d="M5.12498 7.25C4.89844 7.25 4.68118 7.34548 4.52099 7.51543C4.36081 7.68539 4.27081 7.9159 4.27081 8.15625C4.27081 8.3966 4.36081 8.62711 4.52099 8.79707C4.68118 8.96702 4.89844 9.0625 5.12498 9.0625H15.375C15.6015 9.0625 15.8188 8.96702 15.979 8.79707C16.1392 8.62711 16.2291 8.3966 16.2291 8.15625C16.2291 7.9159 16.1392 7.68539 15.979 7.51543C15.8188 7.34548 15.6015 7.25 15.375 7.25H5.12498ZM4.27081 11.7812C4.27081 11.5409 4.36081 11.3104 4.52099 11.1404C4.68118 10.9705 4.89844 10.875 5.12498 10.875H15.375C15.6015 10.875 15.8188 10.9705 15.979 11.1404C16.1392 11.3104 16.2291 11.5409 16.2291 11.7812C16.2291 12.0216 16.1392 12.2521 15.979 12.4221C15.8188 12.592 15.6015 12.6875 15.375 12.6875H5.12498C4.89844 12.6875 4.68118 12.592 4.52099 12.4221C4.36081 12.2521 4.27081 12.0216 4.27081 11.7812ZM5.12498 14.5C4.89844 14.5 4.68118 14.5955 4.52099 14.7654C4.36081 14.9354 4.27081 15.1659 4.27081 15.4062C4.27081 15.6466 4.36081 15.8771 4.52099 16.0471C4.68118 16.217 4.89844 16.3125 5.12498 16.3125H15.375C15.6015 16.3125 15.8188 16.217 15.979 16.0471C16.1392 15.8771 16.2291 15.6466 16.2291 15.4062C16.2291 15.1659 16.1392 14.9354 15.979 14.7654C15.8188 14.5955 15.6015 14.5 15.375 14.5H5.12498ZM5.12498 18.125C4.89844 18.125 4.68118 18.2205 4.52099 18.3904C4.36081 18.5604 4.27081 18.7909 4.27081 19.0312C4.27081 19.2716 4.36081 19.5021 4.52099 19.6721C4.68118 19.842 4.89844 19.9375 5.12498 19.9375H10.25C10.4765 19.9375 10.6938 19.842 10.854 19.6721C11.0142 19.5021 11.1041 19.2716 11.1041 19.0312C11.1041 18.7909 11.0142 18.5604 10.854 18.3904C10.6938 18.2205 10.4765 18.125 10.25 18.125H5.12498Z" fill="white" />
    <path d="M0 3.625C0 2.66359 0.359969 1.74156 1.00072 1.06174C1.64147 0.381919 2.51051 0 3.41667 0L17.0833 0C17.9895 0 18.8585 0.381919 19.4993 1.06174C20.14 1.74156 20.5 2.66359 20.5 3.625V25.375C20.5 26.3364 20.14 27.2584 19.4993 27.9383C18.8585 28.6181 17.9895 29 17.0833 29H3.41667C2.51051 29 1.64147 28.6181 1.00072 27.9383C0.359969 27.2584 0 26.3364 0 25.375V3.625ZM17.0833 1.8125H3.41667C2.96359 1.8125 2.52907 2.00346 2.20869 2.34337C1.88832 2.68328 1.70833 3.1443 1.70833 3.625V25.375C1.70833 25.8557 1.88832 26.3167 2.20869 26.6566C2.52907 26.9965 2.96359 27.1875 3.41667 27.1875H17.0833C17.5364 27.1875 17.9709 26.9965 18.2913 26.6566C18.6117 26.3167 18.7917 25.8557 18.7917 25.375V3.625C18.7917 3.1443 18.6117 2.68328 18.2913 2.34337C17.9709 2.00346 17.5364 1.8125 17.0833 1.8125Z" fill="white" />
</svg>
    