<svg width="63" height="95" viewBox="0 0 63 95" fill="none" xmlns="http://www.w3.org/2000/svg">
    <g filter="url(#filter0_d_209_5)">
        <path d="M16.3537 81.0713C16.176 81.6482 16.2052 82.2695 16.4373 82.8267C16.669 83.3844 17.0889 83.8421 17.623 84.1207C18.1576 84.3993 18.7721 84.4809 19.3606 84.3517C19.9486 84.222 20.4727 83.8893 20.8414 83.4119L55.5486 36.314L16.3537 81.0713ZM16.3537 81.0713L25.2596 52.045H25.6114V50.8995L24.5194 50.5627L24.4161 50.8995M16.3537 81.0713L24.4161 50.8995L16.3537 81.0713ZM20.0094 4.10137C20.0962 3.80449 20.2771 3.54363 20.5243 3.35828C20.7715 3.17293 21.0716 3.07286 21.3805 3.07304H41.9409C42.167 3.07327 42.3895 3.12729 42.5906 3.23067C42.7921 3.33413 42.9657 3.48402 43.0977 3.66799C43.2302 3.85201 43.3166 4.06485 43.3508 4.28906C43.3851 4.51322 43.3655 4.74233 43.2942 4.95746L34.1448 32.4951L33.6436 34.0027H35.2286H54.7915C55.0588 34.0025 55.322 34.0776 55.5486 34.2195C55.7757 34.3614 55.958 34.5645 56.0759 34.8051C56.1933 35.0461 56.2413 35.3151 56.2134 35.5817C56.186 35.8484 56.0845 36.1023 55.9201 36.314L19.9395 82.7085L19.9381 82.7108C19.7334 82.9761 19.4419 83.1608 19.1152 83.2327C18.7885 83.3046 18.4468 83.2593 18.1503 83.1044C17.8533 82.9495 17.6203 82.6952 17.4914 82.3855C17.3626 82.0762 17.3461 81.7307 17.4453 81.4104L17.4457 81.4081L26.7029 51.2363L27.158 49.754H25.6114H8.53075C8.3087 49.754 8.08893 49.7022 7.89064 49.6027C7.69189 49.5033 7.51964 49.3585 7.38623 49.1803C7.25327 49.002 7.16372 48.7954 7.12397 48.5763C7.08467 48.3573 7.09701 48.1319 7.15915 47.9183L20.0094 4.10137Z" fill="white" />
        <path d="M16.3537 81.0713C16.176 81.6482 16.2052 82.2695 16.4373 82.8267C16.669 83.3844 17.0889 83.8421 17.623 84.1207C18.1576 84.3993 18.7721 84.4809 19.3606 84.3517C19.9486 84.222 20.4727 83.8893 20.8414 83.4119L55.5486 36.314L16.3537 81.0713ZM16.3537 81.0713L25.2596 52.045H25.6114V50.8995L24.5194 50.5627L24.4161 50.8995M16.3537 81.0713L24.4161 50.8995M24.4161 50.8995L8.53075 49.754M8.53075 49.754H25.6114H27.158L26.7029 51.2363L17.4457 81.4081L17.4453 81.4104C17.3461 81.7307 17.3626 82.0762 17.4914 82.3855C17.6203 82.6952 17.8533 82.9495 18.1503 83.1044C18.4468 83.2593 18.7885 83.3047 19.1152 83.2327C19.4419 83.1608 19.7334 82.9761 19.9381 82.7108L19.9395 82.7085L55.9201 36.314C56.0845 36.1023 56.186 35.8484 56.2134 35.5817M8.53075 49.754C8.3087 49.754 8.08893 49.7022 7.89064 49.6027C7.69189 49.5033 7.51964 49.3585 7.38623 49.1803C7.25327 49.002 7.16372 48.7954 7.12397 48.5763M43.0977 3.66799C42.9657 3.48402 42.7921 3.33413 42.5906 3.23067C42.3895 3.12729 42.167 3.07327 41.9409 3.07304H21.3805C21.0716 3.07286 20.7715 3.17293 20.5243 3.35828C20.2771 3.54363 20.0962 3.80449 20.0094 4.10137L7.15915 47.9183C7.09701 48.1319 7.08467 48.3573 7.12397 48.5763M43.0977 3.66799L44.0225 3M43.0977 3.66799C43.2302 3.85201 43.3166 4.06485 43.3508 4.28906C43.3851 4.51322 43.3655 4.74233 43.2942 4.95746L34.1448 32.4951L33.6436 34.0027H35.2286H54.7915C55.0588 34.0025 55.322 34.0776 55.5486 34.2195C55.7757 34.3614 55.958 34.5645 56.0759 34.8051C56.1933 35.0461 56.2413 35.3151 56.2134 35.5817M56.2134 35.5817L57.3497 35.6995M7.12397 48.5763L6 48.7793" stroke="#FFC330" stroke-width="5" />
    </g>
    <defs>
        <filter id="filter0_d_209_5" x="0.60144" y="0.572998" width="62.1197" height="94.3385" filterUnits="userSpaceOnUse" color-interpolation-filters="sRGB">
            <feFlood flood-opacity="0" result="BackgroundImageFix" />
            <feColorMatrix in="SourceAlpha" type="matrix" values="0 0 0 0 0 0 0 0 0 0 0 0 0 0 0 0 0 0 127 0" result="hardAlpha" />
            <feOffset dy="4" />
            <feGaussianBlur stdDeviation="2" />
            <feComposite in2="hardAlpha" operator="out" />
            <feColorMatrix type="matrix" values="0 0 0 0 0 0 0 0 0 0 0 0 0 0 0 0 0 0 0.25 0" />
            <feBlend mode="normal" in2="BackgroundImageFix" result="effect1_dropShadow_209_5" />
            <feBlend mode="normal" in="SourceGraphic" in2="effect1_dropShadow_209_5" result="shape" />
        </filter>
    </defs>
</svg>
    