<svg width="23" height="22" viewBox="0 0 23 22" fill="none" xmlns="http://www.w3.org/2000/svg">
    <path d="M0.969482 5.1692H21.7939M9.29925 10.164V15.1589M13.4641 10.164V15.1589M3.05193 5.1692H19.7115L18.0663 19.3745C18.0099 19.8634 17.7676 20.3151 17.3856 20.6432C17.0037 20.9713 16.509 21.1527 15.9964 21.1526H6.767C6.25434 21.1527 5.75969 20.9713 5.37775 20.6432C4.99582 20.3151 4.75345 19.8634 4.69705 19.3745L3.05193 5.1692ZM6.53481 2.31915C6.70323 1.97648 6.96974 1.6868 7.30324 1.48393C7.63674 1.28105 8.02349 1.17334 8.41838 1.17334H14.345C14.7401 1.17315 15.1271 1.28077 15.4608 1.48366C15.7945 1.68655 16.0611 1.97632 16.2296 2.31915L17.629 5.1692H5.13437L6.53481 2.31915V2.31915Z" stroke="black" stroke-width="1.5" stroke-linecap="round" stroke-linejoin="round" />
</svg>
    