<svg width="50" height="50" viewBox="0 0 50 50" fill="none" xmlns="http://www.w3.org/2000/svg">
    <path d="M25 48.4375C37.9442 48.4375 48.4375 37.9442 48.4375 25C48.4375 12.0558 37.9442 1.5625 25 1.5625C12.0558 1.5625 1.5625 12.0558 1.5625 25C1.5625 37.9442 12.0558 48.4375 25 48.4375Z" fill="#ED4C5C" />
    <path d="M32.2656 30.4688L32.3438 26.25L28.125 25L32.3438 23.75L32.2656 19.5312L34.8437 22.8906L39.0625 21.6406L36.4844 25L39.0625 28.3594L34.8437 27.1094L32.2656 30.4688Z" fill="white" />
    <path d="M25.9375 34.375C20.7813 34.375 16.6406 30.1562 16.6406 25C16.6406 19.8438 20.7813 15.625 25.9375 15.625C27.8906 15.625 29.6875 16.25 31.25 17.2656C29.1406 14.8438 26.0156 13.2812 22.5 13.2812C16.0937 13.2812 10.9375 18.5156 10.9375 25C10.9375 31.4844 16.0937 36.7188 22.5 36.7188C26.0156 36.7188 29.1406 35.1563 31.25 32.7344C29.7656 33.75 27.9688 34.375 25.9375 34.375Z" fill="white" />
</svg>
    