<svg width="63" height="63" viewBox="0 0 63 63" fill="none" xmlns="http://www.w3.org/2000/svg">
    <path d="M41.3109 47.1975H21.689C20.6482 47.1975 19.65 47.6109 18.9141 48.3469C18.1781 49.0829 17.7647 50.0811 17.7647 51.1219V55.0462C17.7647 56.087 18.1781 57.0852 18.9141 57.8212C19.65 58.5571 20.6482 58.9706 21.689 58.9706H41.3109C42.3517 58.9706 43.3499 58.5571 44.0858 57.8212C44.8218 57.0852 45.2353 56.087 45.2353 55.0462V51.1219C45.2353 50.0811 44.8218 49.0829 44.0858 48.3469C43.3499 47.6109 42.3517 47.1975 41.3109 47.1975ZM41.3109 55.0462H21.689V51.1219H41.3109V55.0462ZM56.4335 28.1505L32.8872 4.60429C32.5193 4.23643 32.0203 4.02979 31.5 4.02979C30.9797 4.02979 30.4807 4.23643 30.1127 4.60429L6.56645 28.1505C6.29211 28.4249 6.1053 28.7745 6.02962 29.1551C5.95395 29.5357 5.9928 29.9301 6.14128 30.2886C6.28976 30.6471 6.5412 30.9536 6.8638 31.1692C7.1864 31.3848 7.56569 31.4999 7.95371 31.5H17.7647V39.3487C17.7657 40.3892 18.1795 41.3868 18.9152 42.1225C19.651 42.8583 20.6485 43.2721 21.689 43.2731H41.3109C42.3512 43.2716 43.3485 42.8576 44.0841 42.122C44.8198 41.3863 45.2337 40.3891 45.2353 39.3487V31.5H55.0462C55.4342 31.4999 55.8135 31.3848 56.1361 31.1692C56.4587 30.9536 56.7102 30.6471 56.8586 30.2886C57.0071 29.9301 57.046 29.5357 56.9703 29.1551C56.8946 28.7745 56.7078 28.4249 56.4335 28.1505ZM41.3109 27.5756V39.3487H21.689V27.5756H12.6904L31.5 8.76609L50.3095 27.5756H41.3109Z" fill="white" />
</svg>
    