<svg width="61" height="67" viewBox="0 0 61 67" fill="none" xmlns="http://www.w3.org/2000/svg">
    <path d="M0.736206 56.4981L19.3776 10.4931H1.65V1.32874H30.1603V10.3098L11.519 56.3148H30.1603V65.4792H0.736206V56.4981ZM44.9917 66.3956C40.1181 66.3956 36.402 65.021 33.8433 62.2717C31.2847 59.4614 30.0054 55.4594 30.0054 50.2664V1.32874H40.0571V50.9995C40.0571 53.199 40.4836 54.7876 41.3364 55.765C42.2502 56.7424 43.5295 57.2313 45.1744 57.2313C46.8192 57.2313 48.0679 56.7424 48.921 55.765C49.8348 54.7876 50.2917 53.199 50.2917 50.9995V1.32874H59.9779V25.7976V50.2664C59.9779 55.4594 58.6986 59.4614 56.1399 62.2717C53.5813 65.021 49.8654 66.3956 44.9917 66.3956Z" fill="white" />
    <path d="M0.736224 56.4981L0.312941 56.3258L0.279327 56.4088V56.4981H0.736224ZM19.3776 10.4931L19.8009 10.6656L20.0565 10.0348H19.3776V10.4931ZM1.65002 10.4931H1.19312V10.9513H1.65002V10.4931ZM1.65002 1.3287V0.870483H1.19312V1.3287H1.65002ZM30.1604 1.3287H30.6173V0.870483H30.1604V1.3287ZM30.1604 10.3098L30.5836 10.4823L30.6173 10.3993V10.3098H30.1604ZM11.519 56.3148L11.0957 56.1425L10.8401 56.773H11.519V56.3148ZM30.1604 56.3148H30.6173V55.8566H30.1604V56.3148ZM30.1604 65.4792V65.9374H30.6173V65.4792H30.1604ZM0.736224 65.4792H0.279327V65.9374H0.736224V65.4792ZM1.15951 56.6704L19.8009 10.6656L18.9543 10.3205L0.312941 56.3258L1.15951 56.6704ZM19.3776 10.0348H1.65002V10.9513H19.3776V10.0348ZM2.10691 10.4931V1.3287H1.19312V10.4931H2.10691ZM1.65002 1.78692H30.1604V0.870483H1.65002V1.78692ZM29.7035 1.3287V10.3098H30.6173V1.3287H29.7035ZM29.7371 10.1372L11.0957 56.1425L11.9423 56.4871L30.5836 10.4823L29.7371 10.1372ZM11.519 56.773H30.1604V55.8566H11.519V56.773ZM29.7035 56.3148V65.4792H30.6173V56.3148H29.7035ZM30.1604 65.021H0.736224V65.9374H30.1604V65.021ZM1.19312 65.4792V56.4981H0.279327V65.4792H1.19312ZM33.8434 62.2716L33.5059 62.5805L33.5094 62.5842L33.8434 62.2716ZM30.0054 1.3287V0.870483H29.5485V1.3287H30.0054ZM40.0572 1.3287H40.514V0.870483H40.0572V1.3287ZM41.3365 55.765L40.9926 56.0665L40.9978 56.0724L41.0032 56.0784L41.3365 55.765ZM48.921 55.765L48.5875 55.4515L48.5824 55.4575L48.5769 55.463L48.921 55.765ZM50.2917 1.3287V0.870483H49.8348V1.3287H50.2917ZM59.9779 1.3287H60.4348V0.870483H59.9779V1.3287ZM56.14 62.2716L56.4739 62.5842L56.4771 62.5805L56.14 62.2716ZM44.9917 65.9374C40.2047 65.9374 36.6256 64.5898 34.1774 61.9591L33.5094 62.5842C36.1783 65.4521 40.0314 66.8538 44.9917 66.8538V65.9374ZM34.1808 61.9628C31.7233 59.2634 30.4623 55.3874 30.4623 50.2663H29.5485C29.5485 55.5317 30.8462 59.6589 33.5059 62.5805L34.1808 61.9628ZM30.4623 50.2663V1.3287H29.5485V50.2663H30.4623ZM30.0054 1.78692H40.0572V0.870483H30.0054V1.78692ZM39.6003 1.3287V50.9995H40.514V1.3287H39.6003ZM39.6003 50.9995C39.6003 53.2388 40.0309 54.9644 40.9926 56.0665L41.6803 55.463C40.9363 54.6103 40.514 53.1591 40.514 50.9995H39.6003ZM41.0032 56.0784C42.0226 57.1689 43.4346 57.6895 45.1744 57.6895V56.773C43.6245 56.773 42.4779 56.3162 41.6698 55.4515L41.0032 56.0784ZM45.1744 57.6895C46.9129 57.6895 48.3028 57.1694 49.265 56.0665L48.5769 55.463C47.8331 56.3157 46.7256 56.773 45.1744 56.773V57.6895ZM49.2541 56.0784C50.2853 54.9754 50.7486 53.2448 50.7486 50.9995H49.8348C49.8348 53.1531 49.3843 54.5992 48.5875 55.4515L49.2541 56.0784ZM50.7486 50.9995V1.3287H49.8348V50.9995H50.7486ZM50.2917 1.78692H59.9779V0.870483H50.2917V1.78692ZM59.521 1.3287V50.2663H60.4348V1.3287H59.521ZM59.521 50.2663C59.521 55.3874 58.26 59.2634 55.8023 61.9628L56.4771 62.5805C59.1372 59.6589 60.4348 55.5317 60.4348 50.2663H59.521ZM55.806 61.9591C53.3575 64.5898 49.7786 65.9374 44.9917 65.9374V66.8538C49.9517 66.8538 53.8048 65.4521 56.4739 62.5842L55.806 61.9591Z" fill="#FFC330" />
</svg>
    