<svg width="61" height="66" viewBox="0 0 61 66" fill="none" xmlns="http://www.w3.org/2000/svg">
    <path d="M0.456879 55.6276L19.0983 9.6226H1.37067V0.458252H29.881V9.43932L11.2396 55.4444H29.881V64.6087H0.456879V55.6276ZM44.7123 65.5251C39.8388 65.5251 36.1226 64.1505 33.564 61.4012C31.0054 58.5909 29.7261 54.5889 29.7261 49.3959V0.458252H39.7778V50.129C39.7778 52.3285 40.2043 53.9171 41.0571 54.8945C41.9709 55.8719 43.2502 56.3608 44.8951 56.3608C46.5399 56.3608 47.7886 55.8719 48.6416 54.8945C49.5554 53.9171 50.0123 52.3285 50.0123 50.129V0.458252H59.6985V24.9271V49.3959C59.6985 54.5889 58.4192 58.5909 55.8606 61.4012C53.302 64.1505 49.586 65.5251 44.7123 65.5251Z" fill="white" />
    <path d="M0.456897 55.6276L0.0336139 55.4553L0 55.5383V55.6276H0.456897ZM19.0983 9.62257L19.5215 9.79509L19.7771 9.16435H19.0983V9.62257ZM1.37069 9.62257H0.913793V10.0808H1.37069V9.62257ZM1.37069 0.458218V0H0.913793V0.458218H1.37069ZM29.881 0.458218H30.3379V0H29.881V0.458218ZM29.881 9.43928L30.3043 9.6118L30.3379 9.52882V9.43928H29.881ZM11.2397 55.4443L10.8164 55.272L10.5608 55.9025H11.2397V55.4443ZM29.881 55.4443H30.3379V54.9861H29.881V55.4443ZM29.881 64.6087V65.0669H30.3379V64.6087H29.881ZM0.456897 64.6087H0V65.0669H0.456897V64.6087ZM0.880179 55.7999L19.5215 9.79509L18.675 9.45005L0.0336139 55.4553L0.880179 55.7999ZM19.0983 9.16435H1.37069V10.0808H19.0983V9.16435ZM1.82759 9.62257V0.458218H0.913793V9.62257H1.82759ZM1.37069 0.916435H29.881V0H1.37069V0.916435ZM29.4241 0.458218V9.43928H30.3379V0.458218H29.4241ZM29.4578 9.26676L10.8164 55.272L11.6629 55.6166L30.3043 9.6118L29.4578 9.26676ZM11.2397 55.9025H29.881V54.9861H11.2397V55.9025ZM29.4241 55.4443V64.6087H30.3379V55.4443H29.4241ZM29.881 64.1505H0.456897V65.0669H29.881V64.1505ZM0.913793 64.6087V55.6276H0V64.6087H0.913793ZM33.564 61.4012L33.2266 61.71L33.23 61.7137L33.564 61.4012ZM29.7261 0.458218V0H29.2692V0.458218H29.7261ZM39.7778 0.458218H40.2347V0H39.7778V0.458218ZM41.0571 54.8945L40.7133 55.196L40.7185 55.2019L40.7238 55.2079L41.0571 54.8945ZM48.6417 54.8945L48.3081 54.581L48.3031 54.587L48.2976 54.5925L48.6417 54.8945ZM50.0124 0.458218V0H49.5555V0.458218H50.0124ZM59.6986 0.458218H60.1555V0H59.6986V0.458218ZM55.8606 61.4012L56.1946 61.7137L56.1978 61.71L55.8606 61.4012ZM44.7124 65.0669C39.9254 65.0669 36.3463 63.7193 33.8981 61.0887L33.23 61.7137C35.899 64.5817 39.7521 65.9833 44.7124 65.9833V65.0669ZM33.9014 61.0923C31.444 58.393 30.183 54.5169 30.183 49.3959H29.2692C29.2692 54.6612 30.5668 58.7884 33.2266 61.71L33.9014 61.0923ZM30.183 49.3959V0.458218H29.2692V49.3959H30.183ZM29.7261 0.916435H39.7778V0H29.7261V0.916435ZM39.3209 0.458218V50.129H40.2347V0.458218H39.3209ZM39.3209 50.129C39.3209 52.3683 39.7516 54.094 40.7133 55.196L41.401 54.5925C40.657 53.7398 40.2347 52.2886 40.2347 50.129H39.3209ZM40.7238 55.2079C41.7433 56.2984 43.1552 56.819 44.8951 56.819V55.9025C43.3452 55.9025 42.1986 55.4457 41.3905 54.581L40.7238 55.2079ZM44.8951 56.819C46.6336 56.819 48.0235 56.2989 48.9857 55.196L48.2976 54.5925C47.5538 55.4453 46.4463 55.9025 44.8951 55.9025V56.819ZM48.9747 55.2079C50.006 54.105 50.4692 52.3743 50.4692 50.129H49.5555C49.5555 52.2826 49.105 53.7288 48.3081 54.581L48.9747 55.2079ZM50.4692 50.129V0.458218H49.5555V50.129H50.4692ZM50.0124 0.916435H59.6986V0H50.0124V0.916435ZM59.2417 0.458218V49.3959H60.1555V0.458218H59.2417ZM59.2417 49.3959C59.2417 54.5169 57.9806 58.393 55.523 61.0923L56.1978 61.71C58.8579 58.7884 60.1555 54.6612 60.1555 49.3959H59.2417ZM55.5266 61.0887C53.0781 63.7193 49.4993 65.0669 44.7124 65.0669V65.9833C49.6724 65.9833 53.5254 64.5817 56.1946 61.7137L55.5266 61.0887Z" fill="black" />
</svg>
    